<?xml version="1.0" encoding="UTF-8" standalone="no"?>
<svg
   viewBox="0 0 40 50"
   version="1.1"
   id="svg4"
   sodipodi:docname="bites.svg"
   width="40"
   height="50"
   inkscape:version="1.1.2 (b8e25be8, 2022-02-05)"
   xmlns:inkscape="http://www.inkscape.org/namespaces/inkscape"
   xmlns:sodipodi="http://sodipodi.sourceforge.net/DTD/sodipodi-0.dtd"
   xmlns="http://www.w3.org/2000/svg"
   xmlns:svg="http://www.w3.org/2000/svg">
  <defs
     id="defs8" />
  <sodipodi:namedview
     id="namedview6"
     pagecolor="#ffffff"
     bordercolor="#666666"
     borderopacity="1.0"
     inkscape:pageshadow="2"
     inkscape:pageopacity="0.0"
     inkscape:pagecheckerboard="0"
     showgrid="false"
     width="40px"
     inkscape:zoom="16.04"
     inkscape:cx="18.453865"
     inkscape:cy="20.511222"
     inkscape:window-width="1493"
     inkscape:window-height="988"
     inkscape:window-x="310"
     inkscape:window-y="23"
     inkscape:window-maximized="0"
     inkscape:current-layer="svg4" />
  <circle
     style="fill:#cc6677;fill-rule:evenodd;stroke-width:0.767241;fill-opacity:1"
     id="path45"
     cx="20"
     cy="25"
     r="17.5" />
  <!--! Font Awesome Pro 6.0.0 by @fontawesome - https://fontawesome.com License - https://fontawesome.com/license (Commercial License) Copyright 2022 Fonticons, Inc. -->
  <path
     d="m 20.011478,20.625011 c 1.552733,0 2.812497,-1.259765 2.812497,-2.812498 C 22.823975,16.25978 21.566164,15 20.011478,15 c -1.554687,0 -2.847655,1.25978 -2.847655,2.812513 0,1.552733 1.296875,2.812498 2.847655,2.812498 z m 7.464837,-1.296874 C 26.933738,18.658606 25.950535,18.5547 25.279051,19.097434 L 23.2771,20.718761 c -1.842186,1.491796 -4.691402,1.491796 -6.535151,0 l -1.997264,-1.621093 c -0.669922,-0.542968 -1.655077,-0.438671 -2.197264,0.230469 -0.542968,0.671874 -0.439843,1.656249 0.230859,2.199217 l 1.999608,1.619921 c 0.458203,0.370937 0.962109,0.670312 1.483593,0.934374 l -0.03516,9.668352 C 16.226321,34.438282 16.788039,35 17.47632,35 h 0.589843 c 0.688281,0 1.25,-0.561718 1.25,-1.249999 v -4.374997 h 1.249999 v 4.374997 C 20.566162,34.438282 21.12788,35 21.81616,35 h 0.589844 c 0.68828,0 1.249999,-0.561718 1.249999,-1.249999 l -4e-6,-9.667961 c 0.521484,-0.263906 1.02539,-0.563281 1.483202,-0.933984 l 2.000002,-1.619921 c 0.774612,-0.543749 0.844924,-1.528124 0.337112,-2.199998 z"
     id="path2"
     style="stroke-width:0.0390625;fill:#e2b3aa;fill-opacity:1" />
</svg>
