<?xml version="1.0" encoding="UTF-8" standalone="no"?>
<!-- Generator: Adobe Illustrator 26.0.3, SVG Export Plug-In . SVG Version: 6.00 Build 0)  -->

<svg
   version="1.1"
   id="svg4"
   inkscape:version="1.2.2 (732a01da63, 2022-12-09, custom)"
   sodipodi:docname="breeding_not_validated_selected.svg"
   x="0px"
   y="0px"
   viewBox="0 0 30 40"
   xml:space="preserve"
   width="30"
   height="40"
   xmlns:inkscape="http://www.inkscape.org/namespaces/inkscape"
   xmlns:sodipodi="http://sodipodi.sourceforge.net/DTD/sodipodi-0.dtd"
   xmlns="http://www.w3.org/2000/svg"
   xmlns:svg="http://www.w3.org/2000/svg"><defs
   id="defs1058" />
<style
   type="text/css"
   id="style1050">
	.st0{fill:#A7B9C1;}
	.st1{fill:#0071AF;}
</style>
<path
   class="st0"
   d="M 27.45,39.825 H 2.55 C 1.125,39.825 0,38.7 0,37.275 V 10.725 C 0,9.3 1.125,8.175 2.55,8.175 h 24.9 c 1.425,0 2.55,1.125 2.55,2.55 V 37.2 c 0,1.425 -1.125,2.625 -2.55,2.625 z"
   id="path1052"
   style="fill:#ffffff;stroke-width:0.75" />

<sodipodi:namedview
   bordercolor="#666666"
   borderopacity="1"
   gridtolerance="10"
   guidetolerance="10"
   id="namedview6"
   inkscape:current-layer="svg4"
   inkscape:cx="13.836958"
   inkscape:cy="31.692433"
   inkscape:pagecheckerboard="0"
   inkscape:pageopacity="0"
   inkscape:pageshadow="2"
   inkscape:window-height="1136"
   inkscape:window-maximized="1"
   inkscape:window-width="1846"
   inkscape:window-x="0"
   inkscape:window-y="0"
   inkscape:zoom="12.069127"
   objecttolerance="10"
   pagecolor="#ffffff"
   showgrid="false"
   inkscape:showpageshadow="2"
   inkscape:deskcolor="#d1d1d1">
	</sodipodi:namedview>
<path
   d="m 7.6489123,22.385808 c 0,-2.56474 4.1496487,-8.047046 6.1210357,-10.504221 0.498931,-0.620687 1.537357,-0.620687 2.036288,0 1.971388,2.457175 6.121036,7.939481 6.121036,10.504221 0,3.437172 -3.196406,6.198121 -7.13918,6.198121 -3.942774,0 -7.1391797,-2.760949 -7.1391797,-6.198121 z m 3.8940977,0 c 0,-0.276796 -0.292057,-0.560599 -0.649016,-0.560599 -0.358582,0 -0.649016,0.283803 -0.649016,0.560599 0,2.20035 2.032232,3.955725 4.543114,3.955725 0.356959,0 0.649016,-0.25227 0.649016,-0.560599 0,-0.308329 -0.292057,-0.560599 -0.649016,-0.560599 -1.792908,0 -3.245082,-1.254339 -3.245082,-2.834527 z"
   id="path2"
   inkscape:connector-curvature="0"
   style="fill:#1072ad;fill-opacity:1;stroke-width:0.0376994" /><ellipse
   style="fill:#ffffff;fill-rule:evenodd;stroke:#1072ad;stroke-width:0.514703;stroke-opacity:1"
   id="path844"
   cx="20.179111"
   cy="20"
   rx="1.7869956"
   ry="1.6053194" /></svg>
