<?xml version="1.0" encoding="UTF-8" standalone="no"?>
<svg
   viewBox="0 0 40 50"
   version="1.1"
   id="svg4"
   sodipodi:docname="breeding_not_yet_filtered_selected.svg"
   width="40"
   height="50"
   inkscape:version="1.1.2 (b8e25be8, 2022-02-05)"
   xmlns:inkscape="http://www.inkscape.org/namespaces/inkscape"
   xmlns:sodipodi="http://sodipodi.sourceforge.net/DTD/sodipodi-0.dtd"
   xmlns="http://www.w3.org/2000/svg"
   xmlns:svg="http://www.w3.org/2000/svg"
   xmlns:rdf="http://www.w3.org/1999/02/22-rdf-syntax-ns#"
   xmlns:cc="http://creativecommons.org/ns#"
   xmlns:dc="http://purl.org/dc/elements/1.1/">
  <metadata
     id="metadata10">
    <rdf:RDF>
      <cc:Work
         rdf:about="">
        <dc:format>image/svg+xml</dc:format>
        <dc:type
           rdf:resource="http://purl.org/dc/dcmitype/StillImage" />
      </cc:Work>
    </rdf:RDF>
  </metadata>
  <defs
     id="defs8" />
  <sodipodi:namedview
     pagecolor="#ffffff"
     bordercolor="#666666"
     borderopacity="1"
     objecttolerance="10"
     gridtolerance="10"
     guidetolerance="10"
     inkscape:pageopacity="0"
     inkscape:pageshadow="2"
     inkscape:window-width="1493"
     inkscape:window-height="988"
     id="namedview6"
     showgrid="false"
     inkscape:zoom="7.7489281"
     inkscape:cx="-12.324285"
     inkscape:cy="31.230126"
     inkscape:window-x="0"
     inkscape:window-y="23"
     inkscape:window-maximized="0"
     inkscape:current-layer="svg4"
     inkscape:pagecheckerboard="0" />
  <path
     class="st0"
     d="M 33.767771,42.5 H 6.2322278 C 4.6563984,42.5 3.4123226,41.255924 3.4123226,39.680094 V 10.319905 c 0,-1.5758294 1.2440758,-2.8199052 2.8199052,-2.8199052 H 33.767771 c 1.57583,0 2.819906,1.2440758 2.819906,2.8199052 v 29.277251 c 0,1.575829 -1.244076,2.902844 -2.819906,2.902844 z"
     id="path5"
     style="fill:#ffffff;stroke-width:0.829383" />
  <path
     inkscape:connector-curvature="0"
     class="st1"
     d="m 31.627907,24.200582 h -1.598838 c -0.145348,-2.180233 -1.017441,-4.215117 -2.398256,-5.813954 l 1.162791,-1.16279 c 0.290698,-0.290699 0.290698,-0.79942 0,-1.090117 -0.290697,-0.290698 -0.799418,-0.290698 -1.090116,0 l -1.16279,1.162791 C 24.94186,15.915698 22.906977,15.043605 20.726743,14.898256 v -1.598838 c 0,-0.436045 -0.363371,-0.799418 -0.799418,-0.799418 -0.436047,0 -0.799418,0.363373 -0.799418,0.799418 v 1.598838 c -2.180233,0.145349 -4.215117,1.017442 -5.813954,2.398256 l -1.162789,-1.162791 c -0.290699,-0.290698 -0.799419,-0.290698 -1.090117,0 -0.290698,0.290697 -0.290698,0.799418 0,1.090117 l 1.162791,1.16279 c -1.380814,1.598837 -2.2529073,3.633721 -2.3982562,5.813954 H 8.2267446 c -0.4360465,0 -0.7994186,0.363371 -0.7994186,0.799418 0,0.436047 0.3633721,0.799418 0.7994186,0.799418 h 1.5988372 c 0.1453489,2.180234 1.0174422,4.215117 2.3982562,5.813955 l -1.162791,1.16279 c -0.290698,0.290698 -0.290698,0.799419 0,1.090116 0.145349,0.145349 0.363372,0.218024 0.581395,0.218024 0.218023,0 0.363372,-0.07267 0.581396,-0.218024 l 1.16279,-1.162791 c 1.598837,1.380814 3.63372,2.252908 5.813953,2.398256 v 1.598838 c 0,0.436046 0.363372,0.799418 0.799418,0.799418 0.436047,0 0.799419,-0.363372 0.799419,-0.799418 v -1.598838 c 2.180233,-0.145348 4.215116,-1.017442 5.813954,-2.398256 l 1.162791,1.162791 c 0.145349,0.145349 0.363371,0.218024 0.581395,0.218024 0.218023,0 0.363372,-0.07267 0.581395,-0.218024 0.290698,-0.290697 0.290698,-0.799418 0,-1.090116 l -1.16279,-1.16279 c 1.380814,-1.598838 2.252906,-3.633721 2.398255,-5.813955 h 1.598838 c 0.436046,0 0.799418,-0.363371 0.799418,-0.799418 0,-0.436047 -0.508721,-0.799418 -0.944767,-0.799418 z m -3.197674,0 h -3.92442 c -0.145348,-0.726744 -0.363371,-1.380814 -0.799418,-1.889535 l 2.761628,-2.761629 c 1.16279,1.235466 1.81686,2.906978 1.96221,4.651164 z M 19.927325,28.125 c -1.744186,0 -3.125,-1.380814 -3.125,-3.125 0,-1.744186 1.380814,-3.125 3.125,-3.125 1.744186,0 3.125,1.380814 3.125,3.125 0,1.744186 -1.380814,3.125 -3.125,3.125 z m 5.450582,-9.738372 -2.761629,2.761628 c -0.581395,-0.363372 -1.235465,-0.65407 -1.889535,-0.799418 v -3.92442 c 1.744187,0.218024 3.415699,0.872094 4.651164,1.96221 z m -6.25,-1.96221 v 3.92442 c -0.726744,0.145348 -1.380814,0.363371 -1.962209,0.799418 l -2.761629,-2.761628 c 1.30814,-1.090116 2.979652,-1.744186 4.723838,-1.96221 z m -5.813954,3.052326 2.761628,2.761629 c -0.363372,0.581395 -0.65407,1.235465 -0.799418,1.889534 h -3.924418 c 0.218023,-1.671511 0.872093,-3.343023 1.962208,-4.651163 z m -1.962208,6.322674 h 3.924418 c 0.145348,0.726745 0.363371,1.380815 0.799418,1.889535 l -2.761628,2.761629 c -1.090115,-1.235465 -1.744185,-2.906977 -1.962208,-4.651164 z m 3.052324,5.813955 2.761629,-2.761629 c 0.581395,0.363373 1.235465,0.65407 1.889535,0.799419 v 3.924419 c -1.671512,-0.218024 -3.343024,-0.872094 -4.651164,-1.962209 z m 6.322674,1.962209 v -3.924419 c 0.726745,-0.145349 1.380815,-0.363372 1.889535,-0.799419 l 2.761629,2.761629 c -1.235465,1.090115 -2.906977,1.744185 -4.651164,1.962209 z m 5.813955,-3.052326 -2.761629,-2.761628 c 0.363373,-0.581395 0.65407,-1.235465 0.799419,-1.889535 h 3.924419 c -0.218024,1.671512 -0.872094,3.343024 -1.962209,4.651163 z"
     id="path13"
     style="fill:#0071af;fill-opacity:1;stroke-width:0.726744" />
  <!-- Font Awesome Pro 5.15.4 by @fontawesome - https://fontawesome.com License - https://fontawesome.com/license (Commercial License) -->
</svg>
