<?xml version="1.0" encoding="UTF-8" standalone="no"?>
<!-- Generator: Adobe Illustrator 26.0.3, SVG Export Plug-In . SVG Version: 6.00 Build 0)  -->

<svg
   version="1.1"
   id="svg4"
   x="0px"
   y="0px"
   viewBox="0 0 30 40"
   xml:space="preserve"
   sodipodi:docname="breeding_not_validated.svg"
   width="30"
   height="40"
   inkscape:version="1.1.1 (3bf5ae0d25, 2021-09-20)"
   xmlns:inkscape="http://www.inkscape.org/namespaces/inkscape"
   xmlns:sodipodi="http://sodipodi.sourceforge.net/DTD/sodipodi-0.dtd"
   xmlns="http://www.w3.org/2000/svg"
   xmlns:svg="http://www.w3.org/2000/svg"><defs
   id="defs1385" />
<style
   type="text/css"
   id="style1378">
	.st0{fill:#A7B9C1;}
	.st1{fill:#0071AF;}
</style>
<sodipodi:namedview
   bordercolor="#666666"
   borderopacity="1"
   gridtolerance="10"
   guidetolerance="10"
   id="namedview6"
   inkscape:current-layer="svg4"
   inkscape:cx="4.4711495"
   inkscape:cy="60.360518"
   inkscape:pagecheckerboard="0"
   inkscape:pageopacity="0"
   inkscape:pageshadow="2"
   inkscape:window-height="988"
   inkscape:window-maximized="0"
   inkscape:window-width="1493"
   inkscape:window-x="1769"
   inkscape:window-y="33"
   inkscape:zoom="4.0258104"
   objecttolerance="10"
   pagecolor="#ffffff"
   showgrid="false">
	</sodipodi:namedview>
<path
   class="st0"
   d="M 27.45,39.825 H 2.55 C 1.125,39.825 0,38.7 0,37.275 V 10.725 C 0,9.3 1.125,8.175 2.55,8.175 h 24.9 c 1.425,0 2.55,1.125 2.55,2.55 V 37.2 c 0,1.425 -1.125,2.625 -2.55,2.625 z"
   id="path1381"
   style="stroke-width:0.75" />
<path
   id="path2"
   inkscape:connector-curvature="0"
   class="st1"
   d="m 8,26.5 c 0,-2.692308 4.076923,-8.384616 6,-11.000001 0.461538,-0.615383 1.538462,-0.615383 2,0 1.923077,2.538461 6,8.307693 6,11.000001 0,3.615386 -3.153848,6.461538 -7,6.461538 -3.846152,0 -7,-2.846153 -7,-6.461538 z m 3.846152,0 c 0,-0.307692 -0.307691,-0.615387 -0.615383,-0.615387 -0.384616,0 -0.615383,0.307695 -0.615383,0.615387 0,2.307691 1.999999,4.153847 4.461539,4.153847 0.384612,0 0.615383,-0.230771 0.615383,-0.615386 0,-0.307692 -0.307692,-0.615384 -0.615383,-0.615384 C 13.230769,29.499997 11.846152,28.192308 11.846152,26.5 Z"
   style="stroke-width:0.76923;fill:#000000" />
<path
   d="m 15.312653,19.346131 h -1.090927 c -0.603495,0 -1.094002,0.96396 -1.094002,2.149971 v 0.429191 c 0,0.178202 0.07337,0.322393 0.164049,0.322393 0.09068,0 0.164048,-0.143063 0.164048,-0.322393 v -0.429191 c 0,-0.830568 0.343478,-1.505179 0.765905,-1.505179 h 1.091952 c 0.422426,0 0.766929,0.676625 0.766929,1.509211 0,0.544042 -0.149899,1.047783 -0.391256,1.314767 l -0.998034,1.103196 c -0.154821,0.171273 -0.2512,0.493667 -0.2512,0.842258 v 0.711284 c 0,0.178204 0.07337,0.322597 0.164049,0.322597 0.09068,0 0.164049,-0.145281 0.164049,-0.322597 v -0.711284 c 0,-0.116184 0.03204,-0.223864 0.08362,-0.28109 l 0.998443,-1.103799 c 0.344135,-0.380224 0.558424,-1.099569 0.558424,-1.875332 0,-1.188025 -0.491123,-2.154003 -1.096053,-2.154003 z m -0.708487,7.415089 c -0.181173,0 -0.328098,0.288543 -0.328098,0.644589 0,0.356045 0.146925,0.644787 0.328098,0.644787 0.181171,0 0.328098,-0.288742 0.328098,-0.644787 0,-0.356046 -0.14662,-0.644589 -0.328098,-0.644589 z"
   id="path1663"
   style="fill:#ffffff;stroke-width:0.0143735" /></svg>
