<?xml version="1.0" encoding="UTF-8" standalone="no"?>
<!-- Generator: Adobe Illustrator 26.0.3, SVG Export Plug-In . SVG Version: 6.00 Build 0)  -->

<svg
   version="1.1"
   id="svg4"
   inkscape:version="1.1.1 (3bf5ae0d25, 2021-09-20)"
   sodipodi:docname="breeding_other_selected.svg"
   x="0px"
   y="0px"
   viewBox="0 0 30 40"
   xml:space="preserve"
   width="30"
   height="40"
   xmlns:inkscape="http://www.inkscape.org/namespaces/inkscape"
   xmlns:sodipodi="http://sodipodi.sourceforge.net/DTD/sodipodi-0.dtd"
   xmlns="http://www.w3.org/2000/svg"
   xmlns:svg="http://www.w3.org/2000/svg"><defs
   id="defs1058" />
<style
   type="text/css"
   id="style1050">
	.st0{fill:#A7B9C1;}
	.st1{fill:#0071AF;}
</style>
<path
   class="st0"
   d="M 27.45,39.825 H 2.55 C 1.125,39.825 0,38.7 0,37.275 V 10.725 C 0,9.3 1.125,8.175 2.55,8.175 h 24.9 c 1.425,0 2.55,1.125 2.55,2.55 V 37.2 c 0,1.425 -1.125,2.625 -2.55,2.625 z"
   id="path1052"
   style="fill:#ffffff;stroke-width:0.75" />
<path
   class="st1"
   d="m 24.248555,23.364163 h -1.271676 c -0.1156,-1.734104 -0.80925,-3.352602 -1.907515,-4.624279 l 0.924855,-0.924855 c 0.231214,-0.231213 0.231214,-0.635838 0,-0.867052 -0.231214,-0.231214 -0.635838,-0.231214 -0.867052,0 l -0.924855,0.924856 c -1.271676,-1.098266 -2.890173,-1.791908 -4.624277,-1.907515 v -1.271676 c 0,-0.346821 -0.289018,-0.635838 -0.635839,-0.635838 -0.34682,0 -0.635837,0.289017 -0.635837,0.635838 v 1.271676 c -1.734104,0.115607 -3.352602,0.809249 -4.6242781,1.907514 L 8.7572255,16.947977 c -0.231214,-0.231214 -0.6358383,-0.231214 -0.8670522,0 -0.2312138,0.231214 -0.2312138,0.635839 0,0.867052 l 0.9248556,0.924855 c -1.098266,1.271677 -1.7919076,2.890174 -1.9075145,4.624278 H 5.6358381 C 5.2890173,23.364163 5,23.653179 5,24 c 0,0.34682 0.2890173,0.635839 0.6358381,0.635839 h 1.2716763 c 0.1156067,1.734103 0.8092485,3.352601 1.9075145,4.624277 l -0.9248556,0.924855 c -0.2312138,0.231214 -0.2312138,0.635838 0,0.867052 0.1156067,0.115613 0.2890174,0.17341 0.4624278,0.17341 0.1734104,0 0.2890173,-0.05781 0.4624278,-0.17341 l 0.9248555,-0.924855 c 1.2716766,1.098265 2.8901736,1.791908 4.6242776,1.907515 v 1.271676 c 0,0.34682 0.289017,0.635838 0.635838,0.635838 0.34682,0 0.635837,-0.289018 0.635837,-0.635838 v -1.271676 c 1.734104,-0.1156 3.352603,-0.80925 4.624278,-1.907515 l 0.924857,0.924855 c 0.115613,0.115613 0.289017,0.17341 0.462427,0.17341 0.17341,0 0.289017,-0.05781 0.462428,-0.17341 0.231213,-0.231214 0.231213,-0.635838 0,-0.867052 l -0.924855,-0.924855 c 1.098264,-1.271676 1.791907,-2.890174 1.907513,-4.624277 h 1.271676 C 24.710983,24.635839 25,24.34682 25,24.000001 25,23.653179 24.595376,23.364163 24.248555,23.364163 Z m -2.543354,0 h -3.121386 c -0.115614,-0.578035 -0.289018,-1.098267 -0.635839,-1.502892 l 2.196532,-2.196531 c 0.924856,0.982659 1.445087,2.31214 1.560693,3.699423 z m -6.763004,3.121386 c -1.387284,0 -2.48555,-1.098265 -2.48555,-2.485549 0,-1.387283 1.098266,-2.485549 2.48555,-2.485549 1.387283,0 2.485548,1.098266 2.485548,2.485549 0,1.387284 -1.098265,2.485549 -2.485548,2.485549 z m 4.33526,-7.745665 -2.196532,2.196532 c -0.462428,-0.289017 -0.982658,-0.520231 -1.50289,-0.635837 v -3.121388 c 1.387284,0.173412 2.716762,0.693642 3.699422,1.560693 z m -4.971098,-1.560693 v 3.121388 c -0.578035,0.1156 -1.098266,0.289017 -1.560694,0.635837 l -2.196532,-2.196532 c 1.040462,-0.867052 2.369942,-1.387283 3.757226,-1.560693 z m -4.6242781,2.427745 2.1965321,2.196532 c -0.289018,0.462428 -0.520232,0.98266 -0.635838,1.502891 H 8.1213872 c 0.1734104,-1.32948 0.6936417,-2.65896 1.5606937,-3.699423 z m -1.5606937,5.028903 h 3.1213878 c 0.115606,0.578034 0.289017,1.098265 0.635838,1.502889 L 9.6820809,28.33526 C 8.8150289,27.3526 8.2947976,26.02312 8.1213872,24.635839 Z m 2.4277458,4.624277 2.196532,-2.196532 c 0.462428,0.289017 0.982659,0.520231 1.50289,0.635839 v 3.121386 c -1.32948,-0.17341 -2.65896,-0.693641 -3.699422,-1.560693 z m 5.028902,1.560693 v -3.121386 c 0.578034,-0.115614 1.098265,-0.289018 1.50289,-0.635839 l 2.196532,2.196532 c -0.982658,0.867052 -2.312138,1.387283 -3.699422,1.560693 z m 4.624277,-2.427745 -2.196531,-2.196532 c 0.289018,-0.462428 0.520231,-0.98266 0.635838,-1.502892 h 3.121388 c -0.173411,1.32948 -0.693643,2.65896 -1.560695,3.699424 z"
   id="path1054"
   style="stroke-width:0.578035" />
<sodipodi:namedview
   bordercolor="#666666"
   borderopacity="1"
   gridtolerance="10"
   guidetolerance="10"
   id="namedview6"
   inkscape:current-layer="svg4"
   inkscape:cx="13.836958"
   inkscape:cy="31.651005"
   inkscape:pagecheckerboard="0"
   inkscape:pageopacity="0"
   inkscape:pageshadow="2"
   inkscape:window-height="988"
   inkscape:window-maximized="0"
   inkscape:window-width="1493"
   inkscape:window-x="0"
   inkscape:window-y="13"
   inkscape:zoom="12.069127"
   objecttolerance="10"
   pagecolor="#ffffff"
   showgrid="false">
	</sodipodi:namedview>
</svg>
