<?xml version="1.0" encoding="UTF-8" standalone="no"?>
<svg
   xmlns:dc="http://purl.org/dc/elements/1.1/"
   xmlns:cc="http://creativecommons.org/ns#"
   xmlns:rdf="http://www.w3.org/1999/02/22-rdf-syntax-ns#"
   xmlns:svg="http://www.w3.org/2000/svg"
   xmlns="http://www.w3.org/2000/svg"
   xmlns:sodipodi="http://sodipodi.sourceforge.net/DTD/sodipodi-0.dtd"
   xmlns:inkscape="http://www.inkscape.org/namespaces/inkscape"
   viewBox="0 0 40 50"
   version="1.1"
   id="svg4"
   sodipodi:docname="dharmachakra-solid.svg"
   width="40"
   height="50"
   inkscape:version="0.92.5 (2060ec1f9f, 2020-04-08)">
  <metadata
     id="metadata10">
    <rdf:RDF>
      <cc:Work
         rdf:about="">
        <dc:format>image/svg+xml</dc:format>
        <dc:type
           rdf:resource="http://purl.org/dc/dcmitype/StillImage" />
        <dc:title></dc:title>
      </cc:Work>
    </rdf:RDF>
  </metadata>
  <defs
     id="defs8" />
  <sodipodi:namedview
     pagecolor="#ffffff"
     bordercolor="#666666"
     borderopacity="1"
     objecttolerance="10"
     gridtolerance="10"
     guidetolerance="10"
     inkscape:pageopacity="0"
     inkscape:pageshadow="2"
     inkscape:window-width="1528"
     inkscape:window-height="836"
     id="namedview6"
     showgrid="false"
     inkscape:zoom="12.069127"
     inkscape:cx="14.073749"
     inkscape:cy="51.706442"
     inkscape:window-x="72"
     inkscape:window-y="27"
     inkscape:window-maximized="1"
     inkscape:current-layer="svg4" />
  <!-- Font Awesome Pro 5.15.4 by @fontawesome - https://fontawesome.com License - https://fontawesome.com/license (Commercial License) -->
  <path
     d="m 36.740513,22.321622 -1.189294,0.08175 C 35.187247,19.414127 34.115363,16.677709 32.52204,14.391683 l 0.894388,-0.865208 c 0.477927,-0.462504 0.500719,-1.27094 0.05042,-1.764479 L 32.005437,10.160264 C 31.554445,9.6659676 30.816833,9.6917047 30.395539,10.21552 l -0.78941,0.979509 C 27.520374,9.4494734 25.023683,8.2746682 22.297008,7.8749924 l 0.0739,-1.3027322 C 22.410961,5.8750986 21.905409,5.2854245 21.267942,5.2854245 h -2.067798 c -0.637468,0 -1.142331,0.5896741 -1.102964,1.2868357 l 0.07459,1.3034887 C 15.444401,8.2746682 12.947711,9.4494734 10.862647,11.195786 L 10.073237,10.21552 C 9.6512518,9.6917019 8.9136408,9.6667223 8.4633383,10.160264 l -1.4621,1.601732 c -0.4509928,0.494296 -0.427511,1.302732 0.050419,1.764479 L 7.946046,14.391683 C 6.353413,16.677709 5.2815283,19.414127 4.9168666,22.40337 L 3.7275721,22.32162 c -0.6360865,-0.0439 -1.1741007,0.510193 -1.1741007,1.208868 v 2.266345 c 0,0.698677 0.5380142,1.252016 1.1741007,1.208869 l 1.1892945,-0.08175 c 0.3639705,2.989242 1.4358553,5.725661 3.029179,8.01093 l -0.8943887,0.865207 c -0.4779278,0.462506 -0.5007193,1.270939 -0.050419,1.76448 l 1.4621,1.602489 c 0.4509928,0.494297 1.1886038,0.468561 1.6098991,-0.05526 l 0.78941,-0.980269 c 2.085755,1.745556 4.582445,2.920362 7.309811,3.320038 l -0.07528,1.303489 c -0.04006,0.697161 0.465496,1.286834 1.102964,1.286834 h 2.067798 c 0.637467,0 1.14233,-0.589673 1.102963,-1.286834 l -0.07459,-1.303489 c 2.727366,-0.39892 5.224057,-1.573727 7.309812,-3.320038 l 0.78941,0.980269 c 0.421985,0.523817 1.159596,0.548794 1.609898,0.05526 l 1.4621,-1.602489 c 0.450993,-0.494297 0.427511,-1.302733 -0.05042,-1.76448 L 32.52273,34.934886 c 1.592633,-2.286025 2.664517,-5.022443 3.029179,-8.01093 l 1.189295,0.08175 c 0.636086,0.0439 1.1741,-0.510192 1.1741,-1.208869 V 23.53049 c -6.89e-4,-0.698675 -0.538705,-1.252015 -1.174791,-1.208868 z M 22.018675,12.749836 c 1.713497,0.308083 3.289553,1.034009 4.643222,2.10284 l -2.943538,3.655371 c -0.602936,-0.411788 -1.265267,-0.722142 -1.976634,-0.904571 z m -3.569264,0 0.276949,4.85364 c -0.710677,0.182429 -1.373698,0.49354 -1.976633,0.904571 l -2.943539,-3.655371 c 1.353669,-1.068831 2.929726,-1.794757 4.643223,-2.10284 z m -7.166848,4.869537 3.335826,3.225416 c -0.375711,0.660828 -0.658877,1.387511 -0.826014,2.166425 L 9.3639446,22.707672 C 9.6450382,20.82965 10.30737,19.103019 11.282563,17.619373 Z m -1.9186184,9.000281 4.4284304,-0.303542 c 0.166446,0.778914 0.450303,1.505598 0.825324,2.166425 L 11.282563,31.70871 C 10.30737,30.225064 9.6450382,28.497676 9.3639446,26.619654 Z m 9.0854664,9.957836 c -1.713497,-0.308084 -3.289554,-1.03401 -4.643223,-2.10284 l 2.942848,-3.656127 c 0.602935,0.411785 1.265957,0.72214 1.976633,0.905327 z m 1.784632,-9.491547 c -1.220374,0 -2.210072,-1.084728 -2.210072,-2.42228 0,-1.337552 0.989698,-2.422279 2.210072,-2.422279 1.220374,0 2.210072,1.084727 2.210072,2.422279 0,1.337552 -0.989698,2.42228 -2.210072,2.42228 z m 1.784632,9.491547 -0.27695,-4.85364 c 0.710677,-0.182428 1.373698,-0.493542 1.976634,-0.905327 l 2.942848,3.656127 c -1.353669,1.06883 -2.929035,1.794756 -4.642532,2.10284 z m 7.166848,-4.869536 -3.335136,-3.226173 c 0.375712,-0.660829 0.658877,-1.386755 0.825323,-2.166426 l 4.42843,0.303541 c -0.281093,1.87878 -0.943424,3.606168 -1.918617,5.089058 z M 26.67571,23.011214 C 26.509264,22.2323 26.225408,21.505617 25.849696,20.844789 l 3.335827,-3.225416 c 0.975193,1.483646 1.637524,3.211034 1.918617,5.089057 z"
     id="path2"
     inkscape:connector-curvature="0"
     style="stroke-width:0.07230449;fill:#1072ad;fill-opacity:1" />
</svg>
