<?xml version="1.0" encoding="UTF-8" standalone="no"?>
<svg
   viewBox="0 0 40 50"
   version="1.1"
   id="svg4"
   sodipodi:docname="marker_bite_selected.svg"
   width="40"
   height="50"
   inkscape:version="1.1.1 (3bf5ae0d25, 2021-09-20)"
   xmlns:inkscape="http://www.inkscape.org/namespaces/inkscape"
   xmlns:sodipodi="http://sodipodi.sourceforge.net/DTD/sodipodi-0.dtd"
   xmlns="http://www.w3.org/2000/svg"
   xmlns:svg="http://www.w3.org/2000/svg">
  <defs
     id="defs8" />
  <sodipodi:namedview
     id="namedview6"
     pagecolor="#ffffff"
     bordercolor="#666666"
     borderopacity="1.0"
     inkscape:pageshadow="2"
     inkscape:pageopacity="0.0"
     inkscape:pagecheckerboard="0"
     showgrid="false"
     inkscape:zoom="3.9719514"
     inkscape:cx="94.537914"
     inkscape:cy="-5.4129565"
     inkscape:window-width="1920"
     inkscape:window-height="1017"
     inkscape:window-x="-8"
     inkscape:window-y="-8"
     inkscape:window-maximized="1"
     inkscape:current-layer="svg4" />
  <!--! Font Awesome Pro 6.0.0 by @fontawesome - https://fontawesome.com License - https://fontawesome.com/license (Commercial License) Copyright 2022 Fonticons, Inc. -->
  <circle
     style="fill:#ffffff;fill-opacity:1;fill-rule:evenodd;stroke-width:0.767241"
     id="path45"
     cx="20.650909"
     cy="30.923496"
     r="17.5" />
  <path
     d="m 20.564195,25.41842 c 2.04694,0 3.70766,-1.52506 3.70766,-3.40478 0,-1.87973 -1.65815,-3.4048 -3.70766,-3.4048 -2.04951,0 -3.754,1.52507 -3.754,3.4048 0,1.87972 1.70964,3.40478 3.754,3.40478 z m 9.84074,-1.56998 c -0.71527,-0.81053 -2.01141,-0.93632 -2.89661,-0.27929 l -2.63913,1.96276 c -2.42851,1.80596 -6.18457,1.80596 -8.61515,0 l -2.63295,-1.96248 c -0.88314,-0.65731 -2.18185,-0.53105 -2.8966,0.27901 -0.71579,0.81336 -0.57984,2.00503 0.30433,2.66235 l 2.63604,1.96106 c 0.60404,0.44905 1.26833,0.81147 1.95579,1.13114 l -0.0463,11.70441 c 0,0.83323 0.7405,1.51324 1.64785,1.51324 h 0.77758 c 0.90734,0 1.64784,-0.68001 1.64784,-1.51324 v -5.29632 h 1.64785 v 5.29632 c 0,0.83323 0.7405,1.51324 1.64785,1.51324 h 0.77757 c 0.90735,0 1.64785,-0.68001 1.64785,-1.51324 V 29.60346 c 0.68746,-0.31948 1.35175,-0.6819 1.95527,-1.13067 l 2.63655,-1.96106 c 1.02116,-0.65826 1.11385,-1.84993 0.44441,-2.66329 z"
     id="path2"
     style="fill:#e2b3aa;fill-opacity:1;stroke-width:0.0493471" />
</svg>
