<?xml version="1.0" encoding="UTF-8" standalone="no"?>
<!-- Generator: Adobe Illustrator 26.0.2, SVG Export Plug-In . SVG Version: 6.00 Build 0)  -->

<svg
   version="1.1"
   x="0px"
   y="0px"
   viewBox="0 0 29.999998 40.000001"
   xml:space="preserve"
   id="svg15"
   sodipodi:docname="marker_japonicus_koreicus.svg"
   width="30"
   height="40"
   inkscape:version="1.1.2 (b8e25be8, 2022-02-05)"
   xmlns:inkscape="http://www.inkscape.org/namespaces/inkscape"
   xmlns:sodipodi="http://sodipodi.sourceforge.net/DTD/sodipodi-0.dtd"
   xmlns:xlink="http://www.w3.org/1999/xlink"
   xmlns="http://www.w3.org/2000/svg"
   xmlns:svg="http://www.w3.org/2000/svg"
   xmlns:rdf="http://www.w3.org/1999/02/22-rdf-syntax-ns#"
   xmlns:cc="http://creativecommons.org/ns#"
   xmlns:dc="http://purl.org/dc/elements/1.1/"><metadata
   id="metadata24"><rdf:RDF><cc:Work
       rdf:about=""><dc:format>image/svg+xml</dc:format><dc:type
         rdf:resource="http://purl.org/dc/dcmitype/StillImage" /></cc:Work></rdf:RDF></metadata><defs
   id="defs19"><linearGradient
     inkscape:collect="always"
     id="linearGradient18697"><stop
       style="stop-color:#499fff;stop-opacity:1;"
       offset="0"
       id="stop18693" /><stop
       style="stop-color:#499fff;stop-opacity:0;"
       offset="1"
       id="stop18695" /></linearGradient><linearGradient
     inkscape:collect="always"
     xlink:href="#linearGradient18697"
     id="linearGradient18699"
     x1="0"
     y1="40.325001"
     x2="60.400002"
     y2="40.325001"
     gradientUnits="userSpaceOnUse" /></defs><sodipodi:namedview
   id="namedview17"
   pagecolor="#ffffff"
   bordercolor="#666666"
   borderopacity="1.0"
   inkscape:pageshadow="2"
   inkscape:pageopacity="0.0"
   inkscape:pagecheckerboard="0"
   showgrid="true"
   width="30px"
   inkscape:zoom="8.0998062"
   inkscape:cx="0.98767795"
   inkscape:cy="37.778682"
   inkscape:window-width="1493"
   inkscape:window-height="988"
   inkscape:window-x="0"
   inkscape:window-y="23"
   inkscape:window-maximized="0"
   inkscape:current-layer="svg15"><inkscape:grid
     type="xygrid"
     id="grid866" /></sodipodi:namedview>
<style
   type="text/css"
   id="style2">
	.st0{clip-path:url(#SVGID_00000136386088368648505400000000571717232383379892_);}
	.st1{clip-path:url(#SVGID_00000116205600839791112250000014937956478301575336_);}
	.st2{clip-path:url(#SVGID_00000096040197326335863040000017996150782894966913_);}
	.st3{clip-path:url(#SVGID_00000171685803243020096840000015679599210622463931_);}
	.st4{clip-path:url(#SVGID_00000127036615931805248780000005700885795311586226_);}
	.st5{clip-path:url(#SVGID_00000077315485366628045660000011366337665254483639_);}
	.st6{clip-path:url(#SVGID_00000058583532550707888440000013826178488048493204_);}
	.st7{clip-path:url(#SVGID_00000022557654374484654540000001774627582556727481_);}
	.st8{fill:#333333;}
	.st9{fill:#EEA401;}
	.st10{fill:#F8DA98;}
	.st11{fill:#EFA501;}
	.st12{fill:#FFFFFF;}
	.st13{fill:#666666;}
	.st14{fill:none;stroke:#A7A7A7;stroke-width:0.75;stroke-linecap:square;stroke-miterlimit:10;}
	.st15{fill:none;stroke:#576C7E;stroke-miterlimit:10;}
	.st16{fill:none;}
	.st17{fill:none;stroke:#8D8D8D;stroke-miterlimit:10;}
	.st18{fill:none;stroke:#DADADA;stroke-miterlimit:10;}
	.st19{fill:none;stroke:#AA4499;stroke-width:3;stroke-miterlimit:10;}
	.st20{fill:none;stroke:#333333;stroke-width:3;stroke-miterlimit:10;}
	.st21{fill:none;stroke:#000000;stroke-width:0.25;stroke-miterlimit:10;}
	.st22{fill:#4D4D4D;}
	.st23{clip-path:url(#SVGID_00000144295339361052626790000007699555023762521490_);}
	.st24{fill:#BB082B;}
	.st25{fill:#ED3D2C;}
	.st26{fill:#FB8D46;}
	.st27{fill:#FDCB65;}
	.st28{fill:#FFFEB6;}
	.st29{fill:none;stroke:#666666;stroke-width:0.25;stroke-miterlimit:10;}
	.st30{fill:#E3D6A2;}
	.st31{fill:#6A6B59;}
	.st32{fill:none;stroke:#FFFFFF;stroke-width:0.75;stroke-miterlimit:10;}
	.st33{opacity:0.3;}
	.st34{fill:none;stroke:#4D4D4D;stroke-width:0.75;stroke-miterlimit:10;}
	.st35{fill:#A8B9C1;}
	.st36{fill:#0071B0;}
	.st37{fill:none;stroke:#576C7E;stroke-width:3;stroke-linecap:round;stroke-miterlimit:10;}
	.st38{fill:#E2B3AA;}
	.st39{fill:#AF4949;}
	.st40{fill:#576C7E;}
	.st41{fill:#511136;}
	.st42{fill:#7A1952;}
	.st43{fill:#A1216D;}
	.st44{fill:#B44E89;}
	.st45{fill:#C67AA6;}
	.st46{fill:#FFDD19;}
	.st47{opacity:0.69;}
	.st48{fill:#B6CCB7;}
	.st49{fill:#CC6677;}
	.st50{fill:#1072AD;}
	.st51{fill:#DBE2E5;}
	.st52{fill:#A4A9AC;}
	.st53{fill:#E9EDEF;}
	.st54{fill:#F0F3F4;}
	.st55{fill:#F7F8F9;}
	.st56{fill:#C0C0C0;}
	.st57{fill:#49A999;}
	.st58{fill:#8BCCEC;}
	.st59{fill:#AA4499;}
	.st60{fill:none;stroke:#C0C0C0;stroke-miterlimit:10;}
	.st61{fill:#E6E6E6;}
	.st62{fill:none;stroke:#FFFFFF;stroke-width:3;stroke-linecap:round;stroke-miterlimit:10;}
	.st63{fill:none;stroke:#C0C0C0;stroke-width:4;stroke-linecap:round;stroke-miterlimit:10;}
	.st64{clip-path:url(#SVGID_00000183250794884185990790000000739072844913366953_);}
	.st65{fill:#22AA73;}
	.st66{fill:#F7DC63;}
	.st67{fill:none;stroke:#A8A8A8;stroke-width:0.75;stroke-linecap:square;stroke-miterlimit:10;}
	.st68{clip-path:url(#SVGID_00000147193797632158530140000004258360248796616629_);}
	.st69{opacity:0.61;}
	.st70{opacity:0.27;fill:#EFA501;}
	.st71{clip-path:url(#SVGID_00000000905411102311841070000018389179953301501091_);}
	.st72{clip-path:url(#SVGID_00000002359486753169303410000014227575780122991244_);}
	.st73{fill:none;stroke:#8E8E8E;stroke-miterlimit:10;}
	.st74{fill:none;stroke:#DBDBDB;stroke-miterlimit:10;}
	.st75{fill:#FFFFFF;stroke:#4D4D4D;stroke-miterlimit:10;}
	.st76{fill:#22A973;}
	.st77{fill:#F6DB63;}
</style>
<g
   id="MAPA_BASE">
</g>
<g
   id="GRAFIC">
	<g
   id="Capa_4">
	</g>
</g>
<g
   id="TOC_FONS">
</g>
<g
   id="CREDITS">
</g>

<g
   id="MOBIL">
</g>
<g
   id="POIS">
</g>
<g
   id="POPUP">
</g>
<path
   style="fill:#49a999;fill-opacity:1;stroke:none;stroke-width:0.3394;stroke-miterlimit:4;stroke-dasharray:none;stroke-opacity:1"
   d="M 15.024505,20.318833 V 0.31883317 h 0.608873 c 2.335222,0 5.124301,0.85568193 7.372181,2.26176523 4.720616,2.9528182 7.406507,8.3291346 6.973487,13.9587456 -0.230457,2.996125 -1.069671,4.970413 -3.964863,9.32752 -1.163686,1.751282 -9.388932,13.522042 -9.661589,13.826239 -0.244374,0.272645 -0.669846,0.50021 -1.082259,0.578854 l -0.24583,0.04688 z"
   id="path888"
   inkscape:connector-curvature="0" /><path
   style="fill:#499fff;fill-opacity:1;stroke:none;stroke-width:0.3394;stroke-miterlimit:4;stroke-dasharray:none;stroke-opacity:1"
   d="m 15.024505,20.318833 v -20 h -0.608873 c -2.335223,0 -5.1243021,0.8556819 -7.3721812,2.2617653 -4.7206161,2.9528182 -7.40650699,8.3291347 -6.97348744,13.9587457 0.23045662,2.996125 1.06967064,4.970413 3.96486314,9.32752 1.1636858,1.751282 9.3889325,13.522042 9.6615885,13.826239 0.244375,0.272645 0.669847,0.50021 1.082259,0.578854 l 0.245831,0.04688 z"
   id="path888-3"
   inkscape:connector-curvature="0" /><g
   id="TOC_CONTENT-4"
   transform="matrix(0.40248358,0,0,0.38046972,6.9331073,6.1847205)"
   style="fill:#ffffff;fill-opacity:1"><path
     d="m 22.3,19.9 c 0,0.1 0.1,0.2 0.1,0.4 0.5,1.2 1,2.5 1.4,3.7 0.1,0.2 0.1,0.5 0.1,0.8 0,1.4 -0.1,2.8 -0.1,4.2 0,0.3 0.1,0.6 0.2,0.9 1.4,2.9 2.9,5.9 4.4,8.8 0,0.1 0.1,0.1 0.1,0.2 0.2,0.3 0.1,0.5 -0.2,0.7 -0.3,0.2 -0.5,0 -0.7,-0.3 C 26.8,37.7 26,36 25.1,34.4 24.4,32.9 23.6,31.5 22.9,30 23,29.7 23,29.5 23,29.2 c 0,-1.4 0.1,-2.9 0.1,-4.3 0,-0.4 -0.1,-0.8 -0.2,-1.1 -0.2,-0.5 -0.4,-1.1 -0.7,-1.7 0,0.2 0,0.3 0,0.4 0,1.3 0,2.6 0,4 0,1.3 -0.9,2.2 -2.1,2.2 -1.2,0 -2.1,-0.9 -2.1,-2.2 0,-1.4 0,-2.8 0,-4.3 -0.3,1 -1,1.8 -0.9,2.9 0.1,1.3 0.1,2.7 0.1,4 0,0.2 -0.1,0.5 -0.2,0.7 -1.5,3.1 -3,6.1 -4.6,9.2 -0.1,0.1 -0.1,0.3 -0.2,0.3 -0.2,0.1 -0.4,0.2 -0.5,0.1 -0.1,-0.1 -0.2,-0.3 -0.2,-0.5 0,-0.1 0.1,-0.2 0.2,-0.4 1.5,-3 3,-5.9 4.4,-8.9 0.1,-0.2 0.2,-0.5 0.2,-0.8 0,-1.4 -0.1,-2.8 -0.1,-4.2 0,-0.3 0,-0.6 0.1,-0.9 0.5,-1.2 0.9,-2.5 1.4,-3.7 0,-0.1 0.1,-0.2 0.1,-0.4 -0.6,0.5 -1.2,1.1 -1.7,1.6 C 16,21.3 16,21.4 16,21.5 15.4,23.3 14.7,25 14.1,26.8 14,27 13.9,27.3 13.7,27.5 11.8,29.8 10,32.1 8.1,34.4 8,34.5 7.8,34.7 7.7,34.7 7.5,34.7 7.2,34.6 7.2,34.5 7.1,34.3 7.2,34 7.3,33.9 7.8,33.2 8.4,32.5 9,31.8 c 1.3,-1.6 2.6,-3.2 3.9,-4.9 0.1,-0.2 0.3,-0.4 0.3,-0.6 0.6,-1.7 1.2,-3.3 1.8,-5 0.2,-0.5 0.4,-0.9 0.8,-1.2 0.3,-0.2 0.6,-0.5 0.9,-0.9 -0.1,0 -0.3,0.1 -0.4,0.1 -3.4,1 -6.9,1.3 -10.4,0.5 C 4.8,19.6 3.7,19.2 2.7,18.6 2.5,18.5 2.3,18.4 2.1,18.2 1.1,17.4 1.2,16 2.3,15.4 2.9,15 3.6,14.9 4.3,14.9 6.1,15.2 8,15.6 9.9,16 c 1.9,0.5 3.8,1 5.8,1.2 0.7,0.1 1.4,0.2 2.2,0.2 0,-0.7 0,-1.4 0,-2.2 0,-0.5 -0.1,-0.9 -0.6,-1.2 -0.8,-0.6 -1.6,-1.3 -2.4,-1.9 -0.3,-0.2 -0.4,-0.4 -0.3,-0.8 0.1,-1 0.3,-1.9 0.3,-2.9 C 14.9,8.2 14.8,8 14.7,7.8 13.3,5.6 11.8,3.3 10.4,1.1 10.3,1 10.2,0.9 10.2,0.8 c 0,-0.2 0,-0.5 0.2,-0.5 0.1,-0.1 0.4,0 0.6,0 0.1,0 0.1,0.2 0.2,0.3 1.5,2.3 3,4.6 4.5,6.9 C 16,8 16,8.3 16,8.6 c -0.1,0.9 -0.2,1.8 -0.3,2.7 0,0.1 0,0.3 0.1,0.4 0.8,0.6 1.6,1.2 2.3,1.8 0.5,-0.3 0.9,-0.6 1.4,-1 0,-0.9 0,-2 0,-3.1 0,-0.1 0,-0.3 0,-0.4 0,-0.3 0.2,-0.5 0.5,-0.5 0.3,0 0.5,0.2 0.5,0.5 0,0.8 0,1.7 0,2.5 0,0.4 0,0.8 0,1.1 0.5,0.4 0.9,0.7 1.4,1 0.7,-0.6 1.5,-1.2 2.3,-1.9 0.1,-0.1 0.1,-0.2 0.1,-0.3 -0.1,-0.9 -0.2,-1.8 -0.3,-2.6 -0.1,-0.4 0,-0.7 0.2,-1 1.5,-2.3 3,-4.6 4.5,-6.9 0.1,-0.1 0.1,-0.3 0.2,-0.3 0.2,-0.1 0.4,-0.1 0.6,0 0.1,0.1 0.2,0.4 0.2,0.5 0,0.1 -0.1,0.2 -0.2,0.3 C 28,3.6 26.6,5.9 25.1,8.1 25,8.3 25,8.5 25,8.7 c 0.1,0.9 0.2,1.9 0.3,2.8 0,0.3 -0.1,0.5 -0.3,0.7 -0.9,0.7 -1.8,1.4 -2.7,2.1 -0.2,0.2 -0.3,0.3 -0.3,0.6 0,0.8 0,1.7 0,2.5 2.3,-0.2 4.6,-0.5 6.8,-1.1 1.8,-0.5 3.6,-0.9 5.4,-1 1,-0.1 1.9,-0.1 2.9,0.2 0.3,0.1 0.5,0.2 0.8,0.4 1,0.6 1,1.9 0.2,2.7 -0.9,0.8 -2,1.2 -3.1,1.5 -3.7,1 -7.4,0.8 -11.1,-0.4 -0.1,0 -0.3,-0.1 -0.5,-0.1 0.4,0.3 0.8,0.7 1.1,1 0.2,0.2 0.4,0.5 0.5,0.7 0.6,1.7 1.2,3.5 1.9,5.2 0.1,0.3 0.3,0.6 0.4,0.8 1.8,2.2 3.6,4.5 5.4,6.7 0.1,0.1 0.2,0.2 0.2,0.3 0,0.2 0,0.5 -0.1,0.6 -0.2,0.2 -0.4,0.2 -0.6,0 C 32.1,34.8 31.9,34.6 31.8,34.4 30,32.2 28.2,30 26.4,27.7 26.2,27.5 26.1,27.3 26,27 25.4,25.2 24.7,23.5 24.1,21.7 24,21.5 23.9,21.3 23.7,21.1 c -0.3,-0.4 -0.8,-0.8 -1.4,-1.2 0,-0.1 0,-0.1 0,0 z m 0.9,-1.5 c 0.8,0.2 1.4,0.4 2.1,0.6 3.1,0.8 6.2,0.9 9.3,0.1 1,-0.3 2,-0.6 2.8,-1.2 0.5,-0.4 0.5,-1 -0.1,-1.3 -0.3,-0.1 -0.6,-0.2 -0.9,-0.3 -1.3,-0.2 -2.6,-0.1 -3.9,0.2 -1.6,0.3 -3.3,0.8 -4.9,1.1 -1.4,0.3 -2.8,0.5 -4.4,0.8 z m -6.5,0 c 0,0 0,-0.1 0,-0.1 -0.1,0 -0.3,0 -0.4,-0.1 -1.7,-0.3 -3.4,-0.5 -5,-0.9 C 9.5,16.9 7.7,16.4 5.8,16.2 4.8,16.1 3.9,16.1 3,16.4 c -0.8,0.3 -0.9,1 -0.2,1.4 0.7,0.4 1.4,0.8 2.2,1 2.9,0.9 5.9,0.9 8.8,0.3 0.9,-0.1 1.9,-0.4 2.9,-0.7 z m 2.2,3 c 0.8,0 1.5,0 2.2,0 0,-0.8 0,-1.5 0,-2.2 -0.7,0 -1.5,0 -2.2,0 0,0.7 0,1.4 0,2.2 z m 0,1 c 0,0.7 0,1.4 0,2.2 0.7,0 1.3,0 2,0 0.1,0 0.2,-0.1 0.2,-0.2 0,-0.7 0,-1.3 0,-1.9 -0.7,-0.1 -1.4,-0.1 -2.2,-0.1 z m 2.2,-4.2 c 0,-0.8 0,-1.5 0,-2.1 -0.7,0 -1.5,0 -2.2,0 0,0.7 0,1.4 0,2.1 0.7,0 1.5,0 2.2,0 z m 0,7.3 c -0.8,0 -1.5,0 -2.2,0 0,0.4 0,0.8 0,1.2 0,0.6 0.5,1.1 1.1,1.1 0.6,0 1.1,-0.4 1.1,-1 0,-0.5 0,-0.9 0,-1.3 z m 0,-10.4 c 0.1,-0.6 0,-1.1 -0.5,-1.4 -0.4,-0.3 -0.8,-0.2 -1.2,0 -0.4,0.3 -0.6,0.7 -0.5,1.3 0.7,0.1 1.4,0.1 2.2,0.1 z"
     id="path9-0"
     style="fill:#ffffff;fill-opacity:1"
     inkscape:connector-curvature="0" /></g></svg>
