<?xml version="1.0" encoding="UTF-8" standalone="no"?>
<!-- Generator: Adobe Illustrator 26.0.3, SVG Export Plug-In . SVG Version: 6.00 Build 0)  -->

<svg
   version="1.1"
   id="Capa_1"
   x="0px"
   y="0px"
   viewBox="0 0 30 40"
   xml:space="preserve"
   sodipodi:docname="marker_bite.svg"
   width="30"
   height="40"
   inkscape:version="1.1.1 (3bf5ae0d25, 2021-09-20)"
   xmlns:inkscape="http://www.inkscape.org/namespaces/inkscape"
   xmlns:sodipodi="http://sodipodi.sourceforge.net/DTD/sodipodi-0.dtd"
   xmlns="http://www.w3.org/2000/svg"
   xmlns:svg="http://www.w3.org/2000/svg"><defs
   id="defs833" /><sodipodi:namedview
   id="namedview831"
   pagecolor="#ffffff"
   bordercolor="#666666"
   borderopacity="1.0"
   inkscape:pageshadow="2"
   inkscape:pageopacity="0.0"
   inkscape:pagecheckerboard="0"
   showgrid="false"
   width="30px"
   inkscape:zoom="16.04"
   inkscape:cx="14.713217"
   inkscape:cy="24.625935"
   inkscape:window-width="1505"
   inkscape:window-height="988"
   inkscape:window-x="0"
   inkscape:window-y="13"
   inkscape:window-maximized="0"
   inkscape:current-layer="Capa_1" />
<style
   type="text/css"
   id="style824">
	.st0{fill:#CD6576;}
	.st1{fill:#E3B3A9;}
</style>
<path
   class="st0"
   d="m 15,39.825 v 0 C 6.7499999,39.825 -1.15e-7,33.075 -1.15e-7,24.825 v -1.65 c 0,-8.25 6.750000015,-15 15.000000115,-15 v 0 c 8.25,0 15,6.75 15,15 v 1.65 c 0,8.25 -6.75,15 -15,15 z"
   id="path826"
   style="stroke-width:0.75" />
<path
   class="st1"
   d="m 14.943593,19.750443 c 1.538633,0 2.710924,-1.24556 2.710924,-2.710924 0,-1.465364 -1.24556,-2.710924 -2.710924,-2.710924 -1.465364,0 -2.784192,1.24556 -2.784192,2.710924 0,1.465364 1.318828,2.710924 2.784192,2.710924 z m 7.253554,-1.24556 c -0.512878,-0.659414 -1.465365,-0.732682 -2.124779,-0.219804 l -1.904973,1.538632 c -1.758438,1.465365 -4.54263,1.465365 -6.301067,0 L 9.9613539,18.285079 c -0.659414,-0.512878 -1.611901,-0.43961 -2.124778,0.219804 -0.5128777,0.659414 -0.4396094,1.611901 0.219805,2.124779 l 1.904973,1.538632 c 0.4396101,0.366341 0.9524871,0.659414 1.4653651,0.879219 v 9.378332 c 0,0.659414 0.512877,1.24556 1.245559,1.24556 h 0.586146 c 0.659414,0 1.24556,-0.512878 1.24556,-1.24556 v -4.249557 h 1.245559 v 4.249557 c 0,0.659414 0.512878,1.24556 1.24556,1.24556 h 0.586146 c 0.659414,0 1.24556,-0.512878 1.24556,-1.24556 v -9.378332 c 0.512877,-0.219805 1.025755,-0.512878 1.465364,-0.879219 l 1.904974,-1.538632 c 0.366341,-0.512878 0.439609,-1.465365 0,-2.124779 z"
   id="path828"
   style="stroke-width:0.732682" />
</svg>
