<?xml version="1.0" encoding="UTF-8" standalone="no"?>
<!-- Generator: Adobe Illustrator 26.0.3, SVG Export Plug-In . SVG Version: 6.00 Build 0)  -->

<svg
   xmlns:dc="http://purl.org/dc/elements/1.1/"
   xmlns:cc="http://creativecommons.org/ns#"
   xmlns:rdf="http://www.w3.org/1999/02/22-rdf-syntax-ns#"
   xmlns:svg="http://www.w3.org/2000/svg"
   xmlns="http://www.w3.org/2000/svg"
   xmlns:sodipodi="http://sodipodi.sourceforge.net/DTD/sodipodi-0.dtd"
   xmlns:inkscape="http://www.inkscape.org/namespaces/inkscape"
   version="1.1"
   id="Capa_1"
   x="0px"
   y="0px"
   viewBox="0 0 30 40"
   xml:space="preserve"
   sodipodi:docname="marker_bite.svg"
   width="30"
   height="40"
   inkscape:version="0.92.5 (2060ec1f9f, 2020-04-08)"><metadata
   id="metadata8"><rdf:RDF><cc:Work
       rdf:about=""><dc:format>image/svg+xml</dc:format><dc:type
         rdf:resource="http://purl.org/dc/dcmitype/StillImage" /></cc:Work></rdf:RDF></metadata><defs
   id="defs833" /><sodipodi:namedview
   id="namedview831"
   pagecolor="#ffffff"
   bordercolor="#666666"
   borderopacity="1.0"
   inkscape:pageshadow="2"
   inkscape:pageopacity="0.0"
   inkscape:pagecheckerboard="0"
   showgrid="false"
   width="30px"
   inkscape:zoom="5.3101173"
   inkscape:cx="-5.7228526"
   inkscape:cy="21.777478"
   inkscape:window-width="1505"
   inkscape:window-height="836"
   inkscape:window-x="72"
   inkscape:window-y="27"
   inkscape:window-maximized="0"
   inkscape:current-layer="Capa_1" />
<style
   type="text/css"
   id="style824">
	.st0{fill:#CD6576;}
	.st1{fill:#E3B3A9;}
</style>
<path
   class="st0"
   d="m 15,39.825 v 0 C 6.7499999,39.825 -1.15e-7,33.075 -1.15e-7,24.825 v -1.65 c 0,-8.25 6.750000015,-15 15.000000115,-15 v 0 c 8.25,0 15,6.75 15,15 v 1.65 c 0,8.25 -6.75,15 -15,15 z"
   id="path826"
   style="stroke-width:0.75" />

<path
   d="m 17.499597,16.5 c 0,1.38086 -1.12109,2.5 -2.5,2.5 -1.3789,0 -2.5,-1.11914 -2.5,-2.5 0,-1.38086 1.1211,-2.5 2.5,-2.5 1.37891,0 2.5,1.11914 2.5,2.5 z m -3.91796,4.14844 c 0.45312,0.11328 0.93359,0.22656 1.42578,0.22656 1.55859,0 3.01172,-0.78906 3.85937,-2.09375 l 0.71094,-1.08828 c 0.375,-0.57852 1.14844,-0.74219 1.73047,-0.36563 0.57812,0.37657 0.74219,1.14922 0.36328,1.73125 l -0.70703,1.08594 c -0.71485,1.09766 -1.69922,1.95313 -2.83985,2.51172 V 32.75 c 0,0.69141 -0.55859,1.25 -1.25,1.25 -0.6914,0 -1.25,-0.55859 -1.25,-1.25 V 29 h -1.25 v 3.75 c 0,0.69141 -0.55859,1.25 -1.25,1.25 -0.6914,0 -1.25,-0.55859 -1.25,-1.25 V 22.64844 c -1.1082,-0.54688 -2.0726496,-1.37891 -2.77851,-2.47266 l -0.76172,-1.10547 c -0.38281,-0.57812 -0.22773,-1.35234 0.34688,-1.73554 0.57421,-0.38282 1.35039,-0.22774 1.7332,0.34687 l 0.76172,1.14258 c 0.56172,0.83984 1.37031,1.46094 2.29609,1.78906 0.0391,0.008 0.0742,0.0195 0.10938,0.0352 z"
   id="path95"
   style="fill:#e3b3a9;fill-opacity:1;stroke-width:0.0390625" /></svg>