<?xml version="1.0" encoding="utf-8"?>
<!-- Generator: Adobe Illustrator 26.0.3, SVG Export Plug-In . SVG Version: 6.00 Build 0)  -->
<svg version="1.1" id="Capa_1" xmlns="http://www.w3.org/2000/svg" xmlns:xlink="http://www.w3.org/1999/xlink" x="0px" y="0px"
	 viewBox="0 0 40 50" style="enable-background:new 0 0 40 50;" xml:space="preserve">
<style type="text/css">
	.st0{fill:#CD6576;}
	.st1{fill:#E3B3A9;}
</style>
<path class="st0" d="M20,46.1L20,46.1c-11,0-20-9-20-20v-2.2c0-11,9-20,20-20h0c11,0,20,9,20,20v2.2C40,37.1,31,46.1,20,46.1z"/>
<path class="st1" d="M20,19.2c2.1,0,3.7-1.7,3.7-3.7s-1.7-3.7-3.7-3.7s-3.8,1.7-3.8,3.7S18,19.2,20,19.2z M29.9,17.5
	c-0.7-0.9-2-1-2.9-0.3l-2.6,2.1c-2.4,2-6.2,2-8.6,0l-2.6-2.1c-0.9-0.7-2.2-0.6-2.9,0.3c-0.7,0.9-0.6,2.2,0.3,2.9l2.6,2.1
	c0.6,0.5,1.3,0.9,2,1.2l0,12.8c0,0.9,0.7,1.7,1.7,1.7h0.8c0.9,0,1.7-0.7,1.7-1.7v-5.8h1.7v5.8c0,0.9,0.7,1.7,1.7,1.7h0.8
	c0.9,0,1.7-0.7,1.7-1.7l0-12.8c0.7-0.3,1.4-0.7,2-1.2l2.6-2.1C30.4,19.7,30.5,18.4,29.9,17.5z"/>
</svg>
