<?xml version="1.0" encoding="UTF-8" standalone="no"?>
<!-- Generator: Adobe Illustrator 26.0.3, SVG Export Plug-In . SVG Version: 6.00 Build 0)  -->

<svg
   version="1.1"
   id="svg4"
   x="0px"
   y="0px"
   viewBox="0 0 30 40"
   xml:space="preserve"
   sodipodi:docname="storm_drain_dry_selected.svg"
   width="30"
   height="40"
   inkscape:version="1.2.2 (732a01da63, 2022-12-09, custom)"
   xmlns:inkscape="http://www.inkscape.org/namespaces/inkscape"
   xmlns:sodipodi="http://sodipodi.sourceforge.net/DTD/sodipodi-0.dtd"
   xmlns="http://www.w3.org/2000/svg"
   xmlns:svg="http://www.w3.org/2000/svg"><defs
   id="defs1226" />
<style
   type="text/css"
   id="style1219">
	.st0{fill:#A7B9C1;}
	.st1{fill:#0071AF;}
</style>
<sodipodi:namedview
   bordercolor="#666666"
   borderopacity="1"
   gridtolerance="10"
   guidetolerance="10"
   id="namedview6"
   inkscape:current-layer="svg4"
   inkscape:cx="14.534485"
   inkscape:cy="27.619913"
   inkscape:pagecheckerboard="0"
   inkscape:pageopacity="0"
   inkscape:pageshadow="2"
   inkscape:window-height="988"
   inkscape:window-maximized="0"
   inkscape:window-width="1493"
   inkscape:window-x="26"
   inkscape:window-y="23"
   inkscape:zoom="11.386712"
   objecttolerance="10"
   pagecolor="#ffffff"
   showgrid="false"
   inkscape:showpageshadow="2"
   inkscape:deskcolor="#d1d1d1">
	</sodipodi:namedview>
<path
   class="st0"
   d="M 27.45,39.55 H 2.55 C 1.125,39.55 0,38.425 0,37 V 10.45 C 0,9.025 1.125,7.9 2.55,7.9 h 24.9 c 1.425,0 2.55,1.125 2.55,2.55 v 26.475 c 0,1.425 -1.125,2.625 -2.55,2.625 z"
   id="path1222"
   style="fill:#ffffff;stroke-width:0.75" />
<path
   id="path2_00000165205626287454614850000004143467320390635404_"
   inkscape:connector-curvature="0"
   class="st1"
   d="m 11.723419,16.447496 c 0.896748,-1.517574 1.862478,-2.966168 2.483304,-3.931897 0.413883,-0.551846 1.172671,-0.551846 1.586555,0 1.517574,2.207381 4.690684,7.105007 4.690684,9.450349 0,0.482865 -0.06898,0.896749 -0.137961,1.310633 l 4.345781,3.449033 c 0.344903,0.275922 0.413884,0.758787 0.137961,1.034709 -0.275922,0.344904 -0.758787,0.413884 -1.034709,0.137962 L 5.3082181,13.274386 C 4.9633148,12.998463 4.8943342,12.515599 5.1702568,12.239676 5.4461794,11.894773 5.8600634,11.825792 6.2049666,12.101715 Z m -2.2763619,5.518452 c 0,-0.689806 0.344904,-1.724516 0.8277679,-2.828206 l 8.553601,6.760104 c -0.965729,0.965729 -2.345342,1.586555 -3.862916,1.586555 -3.035149,0 -5.5184529,-2.414323 -5.5184529,-5.518453 z m 2.9661689,0 c 0,-0.275922 -0.206942,-0.482864 -0.482865,-0.482864 -0.275923,0 -0.482865,0.275922 -0.482865,0.482864 0,2.000439 1.586555,3.518014 3.518014,3.518014 0.275922,0 0.551845,-0.206942 0.551845,-0.482865 0,-0.275922 -0.206942,-0.482864 -0.551845,-0.482864 -1.379613,0 -2.552284,-1.172671 -2.552284,-2.552285 z"
   style="stroke-width:0.689807" />
</svg>
