<?xml version="1.0" encoding="UTF-8" standalone="no"?>
<svg
   viewBox="0 0 40 50"
   version="1.1"
   id="svg4"
   sodipodi:docname="storm_drain_dry.svg"
   width="40"
   height="50"
   inkscape:version="1.1.2 (b8e25be8, 2022-02-05)"
   xmlns:inkscape="http://www.inkscape.org/namespaces/inkscape"
   xmlns:sodipodi="http://sodipodi.sourceforge.net/DTD/sodipodi-0.dtd"
   xmlns="http://www.w3.org/2000/svg"
   xmlns:svg="http://www.w3.org/2000/svg"
   xmlns:rdf="http://www.w3.org/1999/02/22-rdf-syntax-ns#"
   xmlns:cc="http://creativecommons.org/ns#"
   xmlns:dc="http://purl.org/dc/elements/1.1/">
  <metadata
     id="metadata10">
    <rdf:RDF>
      <cc:Work
         rdf:about="">
        <dc:format>image/svg+xml</dc:format>
        <dc:type
           rdf:resource="http://purl.org/dc/dcmitype/StillImage" />
      </cc:Work>
    </rdf:RDF>
  </metadata>
  <defs
     id="defs8" />
  <sodipodi:namedview
     pagecolor="#ffffff"
     bordercolor="#666666"
     borderopacity="1"
     objecttolerance="10"
     gridtolerance="10"
     guidetolerance="10"
     inkscape:pageopacity="0"
     inkscape:pageshadow="2"
     inkscape:window-width="1493"
     inkscape:window-height="988"
     id="namedview6"
     showgrid="false"
     inkscape:zoom="12.069127"
     inkscape:cx="0.78713233"
     inkscape:cy="26.182507"
     inkscape:window-x="0"
     inkscape:window-y="23"
     inkscape:window-maximized="0"
     inkscape:current-layer="svg4"
     inkscape:pagecheckerboard="0" />
  <path
     class="st0"
     d="M 33.767772,42.5 H 6.2322274 C 4.656398,42.5 3.4123221,41.255924 3.4123221,39.680095 v -29.36019 c 0,-1.5758291 1.2440759,-2.8199049 2.8199053,-2.8199049 H 33.767772 c 1.57583,0 2.819906,1.2440758 2.819906,2.8199049 v 29.277252 c 0,1.575829 -1.244076,2.902843 -2.819906,2.902843 z"
     id="path5"
     style="fill:#a7b9c1;stroke-width:0.829384" />
  <!-- Font Awesome Pro 5.15.4 by @fontawesome - https://fontawesome.com License - https://fontawesome.com/license (Commercial License) -->
  <path
     id="path2_00000165205626287454614850000004143467320390635404_"
     inkscape:connector-curvature="0"
     class="st1"
     d="m 15.939067,20.597093 c 1.111413,-1.880853 2.30832,-3.676213 3.07776,-4.87312 0.51296,-0.683947 1.453387,-0.683947 1.966347,0 1.880853,2.735787 5.813546,8.805813 5.813546,11.712587 0,0.598453 -0.08549,1.111413 -0.170986,1.624373 l 5.38608,4.274667 c 0.427467,0.341973 0.51296,0.940427 0.170987,1.2824 -0.341974,0.427467 -0.940427,0.51296 -1.2824,0.170987 L 7.9881862,16.6644 c -0.4274666,-0.341974 -0.51296,-0.940427 -0.1709866,-1.2824 0.3419733,-0.427467 0.8549333,-0.512961 1.2824,-0.170987 z m -2.82128,6.839467 c 0,-0.854933 0.427466,-2.137334 1.02592,-3.505227 L 24.74488,32.30968 c -1.196906,1.196907 -2.906773,1.966347 -4.787626,1.966347 -3.761707,0 -6.839467,-2.992267 -6.839467,-6.839467 z m 3.676213,0 c 0,-0.341973 -0.25648,-0.598453 -0.598453,-0.598453 -0.341974,0 -0.598454,0.341973 -0.598454,0.598453 0,2.479307 1.966347,4.36016 4.360161,4.36016 0.341973,0 0.683946,-0.25648 0.683946,-0.598453 0,-0.341974 -0.25648,-0.598454 -0.683946,-0.598454 -1.709867,0 -3.163254,-1.453386 -3.163254,-3.163253 z"
     style="fill:#0071af;stroke-width:0.854936" />
</svg>
