<?xml version="1.0" encoding="UTF-8" standalone="no"?>
<!-- Generator: Adobe Illustrator 26.0.3, SVG Export Plug-In . SVG Version: 6.00 Build 0)  -->

<svg
   version="1.1"
   id="svg4"
   x="0px"
   y="0px"
   viewBox="0 0 30 40"
   xml:space="preserve"
   sodipodi:docname="storm_drain_water_selected.svg"
   width="30"
   height="40"
   inkscape:version="1.2.2 (732a01da63, 2022-12-09, custom)"
   xmlns:inkscape="http://www.inkscape.org/namespaces/inkscape"
   xmlns:sodipodi="http://sodipodi.sourceforge.net/DTD/sodipodi-0.dtd"
   xmlns="http://www.w3.org/2000/svg"
   xmlns:svg="http://www.w3.org/2000/svg"><defs
   id="defs1385" />
<style
   type="text/css"
   id="style1378">
	.st0{fill:#A7B9C1;}
	.st1{fill:#0071AF;}
</style>
<sodipodi:namedview
   bordercolor="#666666"
   borderopacity="1"
   gridtolerance="10"
   guidetolerance="10"
   id="namedview6"
   inkscape:current-layer="svg4"
   inkscape:cx="4.4711495"
   inkscape:cy="60.484716"
   inkscape:pagecheckerboard="0"
   inkscape:pageopacity="0"
   inkscape:pageshadow="2"
   inkscape:window-height="1136"
   inkscape:window-maximized="1"
   inkscape:window-width="1846"
   inkscape:window-x="0"
   inkscape:window-y="0"
   inkscape:zoom="4.0258104"
   objecttolerance="10"
   pagecolor="#ffffff"
   showgrid="false"
   inkscape:showpageshadow="2"
   inkscape:deskcolor="#d1d1d1">
	</sodipodi:namedview>
<path
   class="st0"
   d="M 27.45,35.825 H 2.55 C 1.125,35.825 0,34.7 0,33.275 V 6.725 C 0,5.3 1.125,4.175 2.55,4.175 h 24.9 C 28.875,4.175 30,5.3 30,6.725 V 33.2 c 0,1.425 -1.125,2.625 -2.55,2.625 z"
   id="path1381"
   style="fill:#ffffff;stroke-width:0.75" />
<path
   id="path2"
   inkscape:connector-curvature="0"
   class="st1"
   d="m 8,22.5 c 0,-2.692308 4.076923,-8.384616 6,-11.000001 0.461538,-0.615383 1.538462,-0.615383 2,0 1.923077,2.538461 6,8.307693 6,11.000001 0,3.615386 -3.153848,6.461538 -7,6.461538 -3.846152,0 -7,-2.846153 -7,-6.461538 z m 3.846152,0 c 0,-0.307692 -0.307691,-0.615387 -0.615383,-0.615387 -0.384616,0 -0.615383,0.307695 -0.615383,0.615387 0,2.307691 1.999999,4.153847 4.461539,4.153847 0.384612,0 0.615383,-0.230771 0.615383,-0.615386 0,-0.307692 -0.307692,-0.615384 -0.615383,-0.615384 C 13.230769,25.499997 11.846152,24.192308 11.846152,22.5 Z"
   style="stroke-width:0.76923" />
</svg>
