<?xml version="1.0" encoding="UTF-8" standalone="no"?>
<!-- Generator: Adobe Illustrator 26.0.3, SVG Export Plug-In . SVG Version: 6.00 Build 0)  -->

<svg
   version="1.1"
   id="svg4"
   inkscape:version="1.1.2 (b8e25be8, 2022-02-05)"
   sodipodi:docname="breeding_not_yet_filtered_selected.svg"
   x="0px"
   y="0px"
   viewBox="0 0 40 50"
   style="enable-background:new 0 0 40 50;"
   xml:space="preserve"
   xmlns:inkscape="http://www.inkscape.org/namespaces/inkscape"
   xmlns:sodipodi="http://sodipodi.sourceforge.net/DTD/sodipodi-0.dtd"
   xmlns="http://www.w3.org/2000/svg"
   xmlns:svg="http://www.w3.org/2000/svg"><defs
   id="defs17" />
<style
   type="text/css"
   id="style9">
	.st0{fill:#A7B9C1;}
	.st1{fill:#0071AF;}
</style>
<path
   class="st0"
   d="M36.6,45.9H3.4c-1.9,0-3.4-1.5-3.4-3.4V7.1c0-1.9,1.5-3.4,3.4-3.4h33.2c1.9,0,3.4,1.5,3.4,3.4v35.3  C40,44.3,38.5,45.9,36.6,45.9z"
   id="path11" />
<path
   class="st1"
   d="M36.1,23.9h-2.2c-0.2-3-1.4-5.8-3.3-8l1.6-1.6c0.4-0.4,0.4-1.1,0-1.5c-0.4-0.4-1.1-0.4-1.5,0l-1.6,1.6  c-2.2-1.9-5-3.1-8-3.3V8.9c0-0.6-0.5-1.1-1.1-1.1c-0.6,0-1.1,0.5-1.1,1.1v2.2c-3,0.2-5.8,1.4-8,3.3l-1.6-1.6c-0.4-0.4-1.1-0.4-1.5,0  c-0.4,0.4-0.4,1.1,0,1.5l1.6,1.6c-1.9,2.2-3.1,5-3.3,8H3.9c-0.6,0-1.1,0.5-1.1,1.1s0.5,1.1,1.1,1.1h2.2c0.2,3,1.4,5.8,3.3,8  l-1.6,1.6c-0.4,0.4-0.4,1.1,0,1.5c0.2,0.2,0.5,0.3,0.8,0.3s0.5-0.1,0.8-0.3l1.6-1.6c2.2,1.9,5,3.1,8,3.3v2.2c0,0.6,0.5,1.1,1.1,1.1  s1.1-0.5,1.1-1.1v-2.2c3-0.2,5.8-1.4,8-3.3l1.6,1.6c0.2,0.2,0.5,0.3,0.8,0.3s0.5-0.1,0.8-0.3c0.4-0.4,0.4-1.1,0-1.5l-1.6-1.6  c1.9-2.2,3.1-5,3.3-8h2.2c0.6,0,1.1-0.5,1.1-1.1S36.7,23.9,36.1,23.9z M31.7,23.9h-5.4c-0.2-1-0.5-1.9-1.1-2.6l3.8-3.8  C30.6,19.2,31.5,21.5,31.7,23.9z M20,29.3c-2.4,0-4.3-1.9-4.3-4.3s1.9-4.3,4.3-4.3s4.3,1.9,4.3,4.3S22.4,29.3,20,29.3z M27.5,15.9  l-3.8,3.8c-0.8-0.5-1.7-0.9-2.6-1.1v-5.4C23.5,13.5,25.8,14.4,27.5,15.9z M18.9,13.2v5.4c-1,0.2-1.9,0.5-2.7,1.1l-3.8-3.8  C14.2,14.4,16.5,13.5,18.9,13.2z M10.9,17.4l3.8,3.8c-0.5,0.8-0.9,1.7-1.1,2.6H8.2C8.5,21.5,9.4,19.2,10.9,17.4z M8.2,26.1h5.4  c0.2,1,0.5,1.9,1.1,2.6l-3.8,3.8C9.4,30.8,8.5,28.5,8.2,26.1z M12.4,34.1l3.8-3.8c0.8,0.5,1.7,0.9,2.6,1.1v5.4  C16.5,36.5,14.2,35.6,12.4,34.1z M21.1,36.8v-5.4c1-0.2,1.9-0.5,2.6-1.1l3.8,3.8C25.8,35.6,23.5,36.5,21.1,36.8z M29.1,32.6  l-3.8-3.8c0.5-0.8,0.9-1.7,1.1-2.6h5.4C31.5,28.5,30.6,30.8,29.1,32.6z"
   id="path13" />
<sodipodi:namedview
   bordercolor="#666666"
   borderopacity="1"
   gridtolerance="10"
   guidetolerance="10"
   id="namedview6"
   inkscape:current-layer="svg4"
   inkscape:cx="14.044098"
   inkscape:cy="31.816717"
   inkscape:pagecheckerboard="0"
   inkscape:pageopacity="0"
   inkscape:pageshadow="2"
   inkscape:window-height="988"
   inkscape:window-maximized="1"
   inkscape:window-width="1920"
   inkscape:window-x="0"
   inkscape:window-y="23"
   inkscape:zoom="12.069127"
   objecttolerance="10"
   pagecolor="#ffffff"
   showgrid="false">
	</sodipodi:namedview>
</svg>
