<svg xmlns="http://www.w3.org/2000/svg" id="Capa_2" data-name="Capa 2" viewBox="0 0 432.08 120.23"><defs><style>      .cls-1 {        fill: #fff;      }    </style></defs><g id="Capa_1-2" data-name="Capa 1"><g><g><path class="cls-1" d="m212.59,33.48c-.52-2.01-1.23-3.86-2.14-5.54-.91-1.69-2.08-3.14-3.5-4.38-1.43-1.23-3.1-2.19-5.01-2.87-1.91-.68-4.13-1.02-6.66-1.02-3.7,0-6.89.75-9.58,2.24-2.69,1.49-4.88,3.49-6.56,5.98-1.69,2.5-2.93,5.33-3.74,8.51-.81,3.18-1.22,6.42-1.22,9.72s.4,6.55,1.22,9.73c.81,3.18,2.06,6.01,3.74,8.51,1.69,2.5,3.87,4.49,6.56,5.98,2.69,1.49,5.88,2.24,9.58,2.24,2.72,0,5.12-.47,7.2-1.41,2.07-.94,3.86-2.24,5.35-3.89,1.49-1.65,2.66-3.58,3.5-5.79.84-2.2,1.39-4.57,1.65-7.1h11.86c-.26,4.15-1.15,7.94-2.67,11.38-1.52,3.44-3.58,6.4-6.17,8.9-2.59,2.5-5.64,4.42-9.14,5.79-3.5,1.36-7.36,2.04-11.57,2.04-5.19,0-9.84-.96-13.96-2.87-4.12-1.91-7.6-4.52-10.46-7.83-2.85-3.31-5.04-7.16-6.56-11.57-1.52-4.41-2.29-9.11-2.29-14.1s.76-9.59,2.29-14c1.52-4.41,3.71-8.27,6.56-11.57,2.85-3.31,6.34-5.93,10.46-7.88,4.12-1.95,8.77-2.92,13.96-2.92,3.89,0,7.55.53,10.99,1.6,3.44,1.07,6.47,2.62,9.09,4.67,2.63,2.04,4.75,4.52,6.37,7.44,1.62,2.92,2.63,6.26,3.01,10.02h-12.16Z"></path><path class="cls-1" d="m240.11,11.4h49.99v10.5h-37.83v18.19h35.01v9.92h-35.01v20.33h38.51v10.5h-50.67V11.4Z"></path><path class="cls-1" d="m324.13,11.4h12.93l26.74,69.44h-13.03l-6.52-18.38h-27.72l-6.52,18.38h-12.54l26.65-69.44Zm-4.28,41.82h21.2l-10.41-29.86h-.29l-10.5,29.86Z"></path><path class="cls-1" d="m374.61,11.4h33.75c6.22,0,11.22,1.43,14.98,4.28,3.76,2.85,5.64,7.17,5.64,12.93,0,3.5-.86,6.5-2.58,9-1.72,2.5-4.17,4.42-7.34,5.79v.19c4.28.91,7.52,2.93,9.72,6.08,2.2,3.15,3.31,7.08,3.31,11.82,0,2.72-.49,5.27-1.46,7.63-.97,2.37-2.5,4.41-4.57,6.13-2.08,1.72-4.73,3.08-7.97,4.08-3.24,1.01-7.1,1.51-11.57,1.51h-31.9V11.4Zm12.16,29.08h19.84c2.92,0,5.35-.83,7.29-2.48,1.94-1.65,2.92-4.04,2.92-7.15,0-3.5-.88-5.96-2.63-7.39-1.75-1.43-4.28-2.14-7.58-2.14h-19.84v19.16Zm0,30.44h21.49c3.7,0,6.56-.96,8.61-2.87,2.04-1.91,3.06-4.62,3.06-8.12s-1.02-6.08-3.06-7.93-4.91-2.77-8.61-2.77h-21.49v21.69Z"></path></g><g><path class="cls-1" d="m176.17,98.16c.74.71,1.15,1.52,1.23,2.43h-1.41c-.16-.69-.47-1.24-.94-1.64-.47-.4-1.13-.6-1.98-.6-1.04,0-1.87.37-2.51,1.11-.64.74-.95,1.88-.95,3.41,0,1.25.29,2.27.86,3.05.58.78,1.43,1.17,2.57,1.17,1.05,0,1.85-.41,2.4-1.23.29-.43.51-1,.65-1.7h1.41c-.12,1.12-.54,2.07-1.24,2.83-.84.92-1.97,1.38-3.4,1.38-1.23,0-2.26-.38-3.09-1.13-1.1-1-1.65-2.53-1.65-4.61,0-1.58.41-2.87,1.24-3.88.89-1.1,2.12-1.65,3.69-1.65,1.34,0,2.38.36,3.12,1.07Z"></path><path class="cls-1" d="m184.6,100.49c.52.26.91.6,1.18,1.01.26.39.43.85.52,1.38.08.36.12.93.12,1.72h-5.67c.02.79.21,1.43.56,1.91.35.48.88.72,1.61.72.68,0,1.22-.23,1.63-.68.23-.26.39-.57.48-.91h1.29c-.03.29-.15.61-.34.96-.19.35-.41.64-.64.86-.39.39-.88.65-1.47.79-.31.08-.67.12-1.06.12-.96,0-1.78-.35-2.45-1.06-.67-.71-1.01-1.7-1.01-2.97s.34-2.27,1.01-3.05c.67-.78,1.56-1.17,2.65-1.17.55,0,1.08.13,1.6.39Zm.47,3.06c-.05-.57-.18-1.02-.37-1.36-.36-.63-.95-.95-1.78-.95-.6,0-1.1.22-1.5.65-.4.43-.62.99-.64,1.66h4.3Z"></path><path class="cls-1" d="m188.66,100.27h1.25v1.11c.37-.46.76-.78,1.17-.98.41-.2.87-.3,1.38-.3,1.11,0,1.85.39,2.24,1.16.21.42.32,1.03.32,1.81v5h-1.33v-4.91c0-.48-.07-.86-.21-1.15-.23-.49-.66-.73-1.27-.73-.31,0-.57.03-.76.09-.36.11-.67.32-.95.64-.22.26-.36.52-.43.8-.07.28-.1.67-.1,1.18v4.08h-1.31v-7.8Z"></path><path class="cls-1" d="m197.79,98.1h1.32v2.18h1.25v1.07h-1.25v5.09c0,.27.09.45.28.55.1.05.27.08.51.08.06,0,.13,0,.2,0,.07,0,.16-.01.25-.02v1.04c-.15.04-.31.07-.47.09-.16.02-.34.03-.53.03-.61,0-1.03-.16-1.25-.47-.22-.31-.33-.72-.33-1.22v-5.16h-1.06v-1.07h1.06v-2.18Z"></path><path class="cls-1" d="m202.29,100.27h1.25v1.35c.1-.26.35-.58.75-.96.4-.38.86-.56,1.38-.56.02,0,.07,0,.12,0,.06,0,.16.01.3.03v1.38c-.08-.02-.15-.03-.21-.03-.07,0-.14,0-.21,0-.66,0-1.17.21-1.52.64-.35.43-.53.91-.53,1.47v4.49h-1.31v-7.8Z"></path><path class="cls-1" d="m212.62,100.49c.52.26.91.6,1.18,1.01.26.39.43.85.52,1.38.08.36.12.93.12,1.72h-5.67c.02.79.21,1.43.56,1.91.35.48.88.72,1.61.72.68,0,1.22-.23,1.63-.68.23-.26.39-.57.48-.91h1.29c-.03.29-.15.61-.34.96-.19.35-.41.64-.64.86-.39.39-.88.65-1.47.79-.31.08-.67.12-1.06.12-.96,0-1.78-.35-2.45-1.06-.67-.71-1.01-1.7-1.01-2.97s.34-2.27,1.01-3.05c.67-.78,1.56-1.17,2.65-1.17.55,0,1.08.13,1.6.39Zm.47,3.06c-.05-.57-.18-1.02-.37-1.36-.36-.63-.95-.95-1.78-.95-.6,0-1.1.22-1.5.65-.4.43-.62.99-.64,1.66h4.3Z"></path><path class="cls-1" d="m225.68,100.51c.23.15.5.4.79.77v-3.94h1.26v10.73h-1.18v-1.09c-.3.48-.67.83-1.08,1.04-.42.21-.89.32-1.43.32-.87,0-1.62-.37-2.25-1.1-.63-.73-.95-1.7-.95-2.92,0-1.13.29-2.12.87-2.95s1.4-1.25,2.48-1.25c.59,0,1.09.12,1.49.38Zm-2.93,5.85c.35.56.92.84,1.7.84.6,0,1.1-.26,1.49-.78.39-.52.58-1.27.58-2.25s-.2-1.71-.6-2.19c-.4-.47-.9-.71-1.49-.71-.66,0-1.19.25-1.6.76-.41.5-.61,1.25-.61,2.23,0,.84.18,1.53.53,2.1Z"></path><path class="cls-1" d="m230.55,100.49c.27-.04.47-.2.61-.45.14-.26.21-.55.21-.89,0-.04,0-.06,0-.09,0-.03,0-.06-.02-.09h-.8v-1.59h1.56v1.46c0,.62-.13,1.15-.39,1.58-.26.43-.65.68-1.17.75v-.68Z"></path><path class="cls-1" d="m234.48,97.38h7.76v1.31h-6.35v3.25h5.87v1.24h-5.87v3.62h6.46v1.28h-7.87v-10.7Z"></path><path class="cls-1" d="m245.47,105.63c.04.44.15.77.33,1.01.34.42.92.63,1.75.63.5,0,.93-.11,1.31-.32.38-.21.57-.54.57-.98,0-.33-.15-.59-.45-.76-.19-.11-.57-.23-1.14-.37l-1.06-.26c-.68-.17-1.17-.35-1.49-.55-.57-.35-.86-.84-.86-1.47,0-.74.27-1.33.81-1.79.54-.46,1.26-.68,2.17-.68,1.19,0,2.05.35,2.58,1.03.33.44.49.91.48,1.41h-1.24c-.03-.29-.13-.56-.32-.8-.31-.34-.84-.51-1.6-.51-.51,0-.89.09-1.15.28-.26.19-.39.44-.39.75,0,.34.17.61.51.81.2.12.49.23.88.32l.88.21c.96.23,1.6.45,1.93.66.51.34.76.86.76,1.58s-.27,1.29-.8,1.8c-.53.5-1.35.76-2.44.76-1.17,0-2.01-.26-2.5-.79-.49-.53-.75-1.18-.79-1.96h1.26Z"></path><path class="cls-1" d="m252.99,98.1h1.32v2.18h1.25v1.07h-1.25v5.09c0,.27.09.45.28.55.1.05.27.08.51.08.06,0,.13,0,.2,0,.07,0,.16-.01.25-.02v1.04c-.15.04-.31.07-.47.09-.16.02-.34.03-.53.03-.61,0-1.03-.16-1.25-.47-.22-.31-.33-.72-.33-1.22v-5.16h-1.06v-1.07h1.06v-2.18Z"></path><path class="cls-1" d="m258.77,100.27v5.18c0,.4.06.72.18.97.23.47.65.7,1.27.7.89,0,1.49-.41,1.81-1.22.17-.44.26-1.04.26-1.8v-3.83h1.31v7.8h-1.24v-1.15c-.15.29-.36.54-.61.75-.49.41-1.09.61-1.79.61-1.09,0-1.83-.37-2.23-1.11-.21-.4-.32-.93-.32-1.6v-5.3h1.34Z"></path><path class="cls-1" d="m270.61,100.51c.23.15.5.4.79.77v-3.94h1.26v10.73h-1.18v-1.09c-.3.48-.67.83-1.08,1.04-.42.21-.89.32-1.43.32-.87,0-1.62-.37-2.25-1.1-.63-.73-.95-1.7-.95-2.92,0-1.13.29-2.12.87-2.95s1.4-1.25,2.48-1.25c.59,0,1.09.12,1.49.38Zm-2.93,5.85c.35.56.92.84,1.7.84.6,0,1.1-.26,1.49-.78.39-.52.58-1.27.58-2.25s-.2-1.71-.6-2.19c-.4-.47-.9-.71-1.49-.71-.66,0-1.19.25-1.6.76-.41.5-.61,1.25-.61,2.23,0,.84.18,1.53.53,2.1Z"></path><path class="cls-1" d="m275.2,97.38h1.33v1.48h-1.33v-1.48Zm0,2.93h1.33v7.76h-1.33v-7.76Z"></path><path class="cls-1" d="m279.88,105.63c.04.44.15.77.33,1.01.34.42.92.63,1.75.63.5,0,.93-.11,1.31-.32.38-.21.57-.54.57-.98,0-.33-.15-.59-.45-.76-.19-.11-.57-.23-1.14-.37l-1.06-.26c-.68-.17-1.17-.35-1.49-.55-.57-.35-.86-.84-.86-1.47,0-.74.27-1.33.81-1.79.54-.46,1.26-.68,2.17-.68,1.19,0,2.05.35,2.58,1.03.33.44.49.91.48,1.41h-1.24c-.03-.29-.13-.56-.32-.8-.31-.34-.84-.51-1.6-.51-.51,0-.89.09-1.15.28-.26.19-.39.44-.39.75,0,.34.17.61.51.81.2.12.49.23.88.32l.88.21c.96.23,1.6.45,1.93.66.51.34.76.86.76,1.58s-.27,1.29-.8,1.8c-.53.5-1.35.76-2.44.76-1.17,0-2.01-.26-2.5-.79-.49-.53-.75-1.18-.79-1.96h1.26Z"></path><path class="cls-1" d="m294.33,97.38h1.64l3.88,10.7h-1.59l-1.08-3.2h-4.23l-1.16,3.2h-1.49l4.03-10.7Zm2.38,6.31l-1.62-4.73-1.73,4.73h3.35Z"></path><path class="cls-1" d="m301.95,100.27l2.08,6.35,2.17-6.35h1.43l-2.94,7.8h-1.4l-2.88-7.8h1.52Z"></path><path class="cls-1" d="m313.52,103.35c.3-.04.5-.17.6-.38.06-.12.09-.29.09-.5,0-.45-.16-.77-.48-.98-.32-.2-.77-.3-1.36-.3-.68,0-1.17.19-1.45.56-.16.21-.26.51-.31.91h-1.22c.02-.96.34-1.63.93-2.01s1.29-.57,2.08-.57c.92,0,1.66.18,2.23.53.57.35.85.89.85,1.63v4.49c0,.14.03.25.08.33s.17.12.35.12c.06,0,.12,0,.2-.01.07,0,.15-.02.23-.03v.97c-.2.06-.36.1-.47.11-.11.02-.25.02-.44.02-.45,0-.78-.16-.98-.48-.11-.17-.18-.41-.23-.72-.27.35-.65.65-1.15.91-.5.26-1.05.39-1.65.39-.72,0-1.31-.22-1.77-.66s-.69-.99-.69-1.65c0-.72.23-1.28.68-1.68.45-.4,1.04-.64,1.78-.73l2.09-.26Zm-2.76,3.54c.28.22.6.33.98.33.46,0,.91-.11,1.34-.32.73-.35,1.09-.93,1.09-1.74v-1.05c-.16.1-.37.19-.62.26s-.5.12-.74.14l-.79.1c-.47.06-.83.16-1.07.3-.41.23-.61.59-.61,1.09,0,.38.14.68.42.89Z"></path><path class="cls-1" d="m318.22,100.27h1.25v1.11c.37-.46.76-.78,1.17-.98.41-.2.87-.3,1.38-.3,1.11,0,1.85.39,2.24,1.16.21.42.32,1.03.32,1.81v5h-1.33v-4.91c0-.48-.07-.86-.21-1.15-.23-.49-.66-.73-1.27-.73-.31,0-.57.03-.76.09-.36.11-.67.32-.95.64-.22.26-.36.52-.43.8-.07.28-.1.67-.1,1.18v4.08h-1.31v-7.8Z"></path><path class="cls-1" d="m332.25,100.69c.55.43.88,1.16.99,2.21h-1.27c-.08-.48-.25-.88-.53-1.2-.28-.32-.72-.48-1.33-.48-.83,0-1.43.41-1.79,1.22-.23.53-.35,1.18-.35,1.96s.17,1.44.5,1.97.85.8,1.56.8c.54,0,.97-.17,1.29-.5.32-.33.54-.78.66-1.36h1.27c-.15,1.03-.51,1.79-1.09,2.27-.58.48-1.26.72-2.02.72l-.52.71c.14-.04.32-.07.55-.07.34,0,.62.1.84.29.22.2.33.48.33.84s-.15.69-.44.95-.74.4-1.34.4c-.26,0-.52-.04-.8-.11-.16-.04-.36-.11-.63-.2l.26-.59c.18.07.33.12.43.15.2.05.38.08.54.08.18,0,.34-.03.47-.08.25-.1.38-.29.38-.55,0-.15-.07-.29-.19-.4-.13-.11-.3-.17-.51-.17-.11,0-.2,0-.29.03-.08.02-.19.05-.3.09l-.26-.3.79-1.07c-.69,0-1.3-.28-1.81-.83-.7-.79-1.05-1.82-1.05-3.08,0-1.37.33-2.44,1-3.2s1.51-1.14,2.54-1.14c.88,0,1.59.21,2.14.64Z"></path><path class="cls-1" d="m339.31,103.35c.3-.04.5-.17.6-.38.06-.12.09-.29.09-.5,0-.45-.16-.77-.48-.98-.32-.2-.77-.3-1.36-.3-.68,0-1.17.19-1.45.56-.16.21-.26.51-.31.91h-1.22c.02-.96.34-1.63.93-2.01s1.29-.57,2.08-.57c.92,0,1.66.18,2.23.53.57.35.85.89.85,1.63v4.49c0,.14.03.25.08.33s.17.12.35.12c.06,0,.12,0,.2-.01.07,0,.15-.02.23-.03v.97c-.2.06-.36.1-.47.11-.11.02-.25.02-.44.02-.45,0-.78-.16-.98-.48-.11-.17-.18-.41-.23-.72-.27.35-.65.65-1.15.91-.5.26-1.05.39-1.65.39-.72,0-1.31-.22-1.77-.66s-.69-.99-.69-1.65c0-.72.23-1.28.68-1.68.45-.4,1.04-.64,1.78-.73l2.09-.26Zm-2.76,3.54c.28.22.6.33.98.33.46,0,.91-.11,1.34-.32.73-.35,1.09-.93,1.09-1.74v-1.05c-.16.1-.37.19-.62.26s-.5.12-.74.14l-.79.1c-.47.06-.83.16-1.07.3-.41.23-.61.59-.61,1.09,0,.38.14.68.42.89Z"></path><path class="cls-1" d="m344.27,98.1h1.32v2.18h1.25v1.07h-1.25v5.09c0,.27.09.45.28.55.1.05.27.08.51.08.06,0,.13,0,.2,0,.07,0,.16-.01.25-.02v1.04c-.15.04-.31.07-.47.09-.16.02-.34.03-.53.03-.61,0-1.03-.16-1.25-.47-.22-.31-.33-.72-.33-1.22v-5.16h-1.06v-1.07h1.06v-2.18Z"></path><path class="cls-1" d="m349.51,105.63c.04.44.15.77.33,1.01.34.42.92.63,1.75.63.5,0,.93-.11,1.31-.32.38-.21.57-.54.57-.98,0-.33-.15-.59-.45-.76-.19-.11-.57-.23-1.14-.37l-1.06-.26c-.68-.17-1.17-.35-1.49-.55-.57-.35-.86-.84-.86-1.47,0-.74.27-1.33.81-1.79.54-.46,1.26-.68,2.17-.68,1.19,0,2.05.35,2.58,1.03.33.44.49.91.48,1.41h-1.24c-.03-.29-.13-.56-.32-.8-.31-.34-.84-.51-1.6-.51-.51,0-.89.09-1.15.28-.26.19-.39.44-.39.75,0,.34.17.61.51.81.2.12.49.23.88.32l.88.21c.96.23,1.6.45,1.93.66.51.34.76.86.76,1.58s-.27,1.29-.8,1.8c-.53.5-1.35.76-2.44.76-1.17,0-2.01-.26-2.5-.79-.49-.53-.75-1.18-.79-1.96h1.26Z"></path><path class="cls-1" d="m365.77,100.51c.23.15.5.4.79.77v-3.94h1.26v10.73h-1.18v-1.09c-.3.48-.67.83-1.08,1.04-.42.21-.89.32-1.43.32-.87,0-1.62-.37-2.25-1.1-.63-.73-.95-1.7-.95-2.92,0-1.13.29-2.12.87-2.95s1.4-1.25,2.48-1.25c.59,0,1.09.12,1.49.38Zm-2.93,5.85c.35.56.92.84,1.7.84.6,0,1.1-.26,1.49-.78.39-.52.58-1.27.58-2.25s-.2-1.71-.6-2.19c-.4-.47-.9-.71-1.49-.71-.66,0-1.19.25-1.6.76-.41.5-.61,1.25-.61,2.23,0,.84.18,1.53.53,2.1Z"></path><path class="cls-1" d="m375.18,100.49c.52.26.91.6,1.18,1.01.26.39.43.85.52,1.38.08.36.12.93.12,1.72h-5.67c.02.79.21,1.43.56,1.91.35.48.88.72,1.61.72.68,0,1.22-.23,1.63-.68.23-.26.39-.57.48-.91h1.29c-.03.29-.15.61-.34.96-.19.35-.41.64-.64.86-.39.39-.88.65-1.47.79-.31.08-.67.12-1.06.12-.96,0-1.78-.35-2.45-1.06-.67-.71-1.01-1.7-1.01-2.97s.34-2.27,1.01-3.05c.67-.78,1.56-1.17,2.65-1.17.55,0,1.08.13,1.6.39Zm.47,3.06c-.05-.57-.18-1.02-.37-1.36-.36-.63-.95-.95-1.78-.95-.6,0-1.1.22-1.5.65-.4.43-.62.99-.64,1.66h4.3Z"></path><path class="cls-1" d="m384.1,97.38h4.62c1.26,0,2.16.37,2.69,1.12.31.44.47.95.47,1.53,0,.67-.19,1.23-.58,1.66-.2.23-.49.44-.86.62.55.21.96.45,1.23.71.48.46.72,1.11.72,1.93,0,.69-.22,1.31-.65,1.87-.65.83-1.68,1.25-3.1,1.25h-4.55v-10.7Zm4.08,4.52c.62,0,1.1-.09,1.44-.26.54-.27.81-.75.81-1.44s-.29-1.17-.86-1.41c-.32-.14-.8-.2-1.44-.2h-2.61v3.31h2.66Zm.49,4.94c.9,0,1.54-.26,1.92-.77.24-.33.36-.72.36-1.18,0-.78-.35-1.3-1.05-1.59-.37-.15-.87-.22-1.48-.22h-2.9v3.76h3.15Z"></path><path class="cls-1" d="m394.53,97.38h1.31v10.7h-1.31v-10.7Z"></path><path class="cls-1" d="m402.56,103.35c.3-.04.5-.17.6-.38.06-.12.09-.29.09-.5,0-.45-.16-.77-.48-.98-.32-.2-.77-.3-1.36-.3-.68,0-1.17.19-1.45.56-.16.21-.26.51-.31.91h-1.22c.02-.96.34-1.63.93-2.01s1.29-.57,2.08-.57c.92,0,1.66.18,2.23.53.57.35.85.89.85,1.63v4.49c0,.14.03.25.08.33s.17.12.35.12c.06,0,.12,0,.2-.01.07,0,.15-.02.23-.03v.97c-.2.06-.36.1-.47.11-.11.02-.25.02-.44.02-.45,0-.78-.16-.98-.48-.11-.17-.18-.41-.23-.72-.27.35-.65.65-1.15.91-.5.26-1.05.39-1.65.39-.72,0-1.31-.22-1.77-.66s-.69-.99-.69-1.65c0-.72.23-1.28.68-1.68.45-.4,1.04-.64,1.78-.73l2.09-.26Zm-2.76,3.54c.28.22.6.33.98.33.46,0,.91-.11,1.34-.32.73-.35,1.09-.93,1.09-1.74v-1.05c-.16.1-.37.19-.62.26s-.5.12-.74.14l-.79.1c-.47.06-.83.16-1.07.3-.41.23-.61.59-.61,1.09,0,.38.14.68.42.89Z"></path><path class="cls-1" d="m407.26,100.27h1.25v1.11c.37-.46.76-.78,1.17-.98.41-.2.87-.3,1.38-.3,1.11,0,1.85.39,2.24,1.16.21.42.32,1.03.32,1.81v5h-1.33v-4.91c0-.48-.07-.86-.21-1.15-.23-.49-.66-.73-1.27-.73-.31,0-.57.03-.76.09-.36.11-.67.32-.95.64-.22.26-.36.52-.43.8-.07.28-.1.67-.1,1.18v4.08h-1.31v-7.8Z"></path><path class="cls-1" d="m420.95,100.49c.52.26.91.6,1.18,1.01.26.39.43.85.52,1.38.08.36.12.93.12,1.72h-5.67c.02.79.21,1.43.56,1.91.35.48.88.72,1.61.72.68,0,1.22-.23,1.63-.68.23-.26.39-.57.48-.91h1.29c-.03.29-.15.61-.34.96-.19.35-.41.64-.64.86-.39.39-.88.65-1.47.79-.31.08-.67.12-1.06.12-.96,0-1.78-.35-2.45-1.06-.67-.71-1.01-1.7-1.01-2.97s.34-2.27,1.01-3.05c.67-.78,1.56-1.17,2.65-1.17.55,0,1.08.13,1.6.39Zm.47,3.06c-.05-.57-.18-1.02-.37-1.36-.36-.63-.95-.95-1.78-.95-.6,0-1.1.22-1.5.65-.4.43-.62.99-.64,1.66h4.3Z"></path><path class="cls-1" d="m425.79,105.63c.04.44.15.77.33,1.01.34.42.92.63,1.75.63.5,0,.93-.11,1.31-.32.38-.21.57-.54.57-.98,0-.33-.15-.59-.45-.76-.19-.11-.57-.23-1.14-.37l-1.06-.26c-.68-.17-1.17-.35-1.49-.55-.57-.35-.86-.84-.86-1.47,0-.74.27-1.33.81-1.79.54-.46,1.26-.68,2.17-.68,1.19,0,2.05.35,2.58,1.03.33.44.49.91.48,1.41h-1.24c-.03-.29-.13-.56-.32-.8-.31-.34-.84-.51-1.6-.51-.51,0-.89.09-1.15.28-.26.19-.39.44-.39.75,0,.34.17.61.51.81.2.12.49.23.88.32l.88.21c.96.23,1.6.45,1.93.66.51.34.76.86.76,1.58s-.27,1.29-.8,1.8c-.53.5-1.35.76-2.44.76-1.17,0-2.01-.26-2.5-.79-.49-.53-.75-1.18-.79-1.96h1.26Z"></path></g><g><path class="cls-1" d="m56.94,77.11c-2.58-1.49-5.02-2.89-7.67-3.94-2.77-1.1-5.81-1.26-8.98-1.02,2.51,2.94,4.92,5.69,7.49,7.88,5.61,4.78,10.24,5.81,15.02,3.34,1.01-.52,1.98-1.14,2.91-1.83-1.03-.4-2.04-.83-3.01-1.3-2-.96-3.92-2.06-5.77-3.13Z"></path><path class="cls-1" d="m73.65,73.9c.89-.97,1.77-1.94,2.66-2.87,5.55-5.79,14.07-13.29,23.94-11.45,4.3.8,8.06,3.81,11.65,7.13l-6.51-10.13c-.57-.88-1.12-1.81-1.69-2.76-2.07-3.48-4.22-7.09-7.44-8.83-4.77-2.59-10.63.2-14.7,3-1.28.88-2.59,1.94-3.97,3.06-4.18,3.4-8.51,6.92-13.34,6.22-2.87-.42-5.36-2.23-7.64-5.56-3.82-5.59-7.19-11.54-10.03-17.68-1.53-3.32-3.63-7.22-6.28-7.92-1.46-.39-3.28.19-5.41,1.71C23.69,35.87,10.25,46,.27,53.92c-.13,1.27-.21,2.56-.26,3.86,4.82-1.82,9.38-2.8,13.55-2.91,10.25-.25,17.31,6.46,23.38,13.38,4.67-.6,9.47-.78,13.9.99,2.92,1.17,5.61,2.71,8.21,4.21,1.79,1.03,3.63,2.09,5.49,2.98,1.54.74,3.16,1.39,4.84,1.95,1.47-1.43,2.88-2.96,4.26-4.47Z"></path><path class="cls-1" d="m32.44,24.39c3.2-2.29,6.21-3.09,8.95-2.37,4.34,1.15,7.01,5.82,9.04,10.24,2.73,5.93,5.99,11.67,9.68,17.07,1.57,2.29,3.12,3.52,4.75,3.76,3,.43,6.59-2.49,10.06-5.31,1.39-1.13,2.82-2.29,4.25-3.27,7.24-4.96,13.85-6.08,19.11-3.22,4.24,2.3,6.8,6.6,9.06,10.39.54.91,1.07,1.8,1.61,2.64l10.34,16.09c.58-3.34.89-6.77.89-10.28C120.18,26.91,93.27,0,60.07,0,31.1,0,6.91,20.5,1.22,47.78c9.52-7.45,21.24-16.24,31.21-23.39Z"></path><path class="cls-1" d="m111.58,78.99c-1.3.41-2.56,1-3.89,1.61-.74.34-1.48.68-2.23,1-5.75,2.41-12.55,3.6-19.44,3.6-5.27,0-10.58-.7-15.53-2.08-1.75,1.53-3.62,2.91-5.73,4-2.28,1.18-4.58,1.77-6.9,1.77-4.14,0-8.38-1.88-12.8-5.65-3.08-2.63-5.95-5.98-8.72-9.23-.36-.42-.71-.83-1.07-1.25-.14.02-.29.04-.43.06-10.64,1.66-20.67,5.86-30.38,10.11,8.99,21.89,30.5,37.3,55.62,37.3,26.58,0,49.11-17.25,57.05-41.16-1.7-.56-3.89-.61-5.54-.08Z"></path><path class="cls-1" d="m0,62.24h0c.2,5.82,1.24,11.42,2.98,16.71,8.89-3.89,18.73-7.99,28.97-9.93-5.12-5.54-10.75-10.13-18.29-9.93-3.9.1-9.01,1.29-13.67,3.15Z"></path><path class="cls-1" d="m103.81,77.7c.71-.3,1.4-.62,2.1-.94,1.39-.64,2.83-1.3,4.38-1.8,1.11-.35,2.36-.53,3.62-.56-.88-.8-1.77-1.64-2.69-2.51-3.82-3.64-7.77-7.4-11.75-8.14-7.86-1.46-15.24,5.13-20.11,10.21-.87.91-1.73,1.85-2.6,2.8-.89.97-1.79,1.96-2.71,2.92,9.95,2.25,21.15,1.63,29.76-1.98Z"></path></g></g></g></svg>